<?xml version="1.0" encoding="UTF-8"?>
<svg version="1.1" xmlns="http://www.w3.org/2000/svg" width="815" height="724">
<path d="M0 0 C4.81359406 4.28757244 8.08966125 10.30280088 8.89453125 16.6875 C9.02724417 19.73075707 9.03419767 22.76677319 9.01953125 25.8125 C9.02339844 26.62332031 9.02726562 27.43414062 9.03125 28.26953125 C9.02931641 29.43935547 9.02931641 29.43935547 9.02734375 30.6328125 C9.02621582 31.33937988 9.02508789 32.04594727 9.02392578 32.77392578 C8.89453125 34.6875 8.89453125 34.6875 7.89453125 37.6875 C11.43734435 36.90090739 14.97855603 36.10732168 18.51953125 35.3125 C19.51855469 35.09078125 20.51757812 34.8690625 21.546875 34.640625 C25.48394565 33.75413227 29.31690699 32.88980802 33.12890625 31.5546875 C41.36352632 28.97264562 50.78711265 29.63293985 58.58203125 33.1875 C63.64655346 36.13262976 66.94846242 39.09625657 68.89453125 44.6875 C70.07362579 49.53906098 70.47184996 53.25794892 68.58203125 57.9375 C68.02515625 58.845 67.46828125 59.7525 66.89453125 60.6875 C65.70701102 63.98616729 64.68282823 67.27154643 63.89453125 70.6875 C63.23453125 70.6875 62.57453125 70.6875 61.89453125 70.6875 C61.71664062 71.54601562 61.71664062 71.54601562 61.53515625 72.421875 C59.49784264 79.62700849 54.19227381 88.38975744 48.89453125 93.6875 C48.60578125 94.265 48.31703125 94.8425 48.01953125 95.4375 C45.90544675 99.66566899 43.37804798 103.48266461 39.89453125 106.6875 C39.11078125 107.47125 38.32703125 108.255 37.51953125 109.0625 C36.65328125 109.92875 35.78703125 110.795 34.89453125 111.6875 C34.02828125 112.595 33.16203125 113.5025 32.26953125 114.4375 C29.89453125 116.6875 29.89453125 116.6875 26.89453125 117.6875 C26.89453125 118.3475 26.89453125 119.0075 26.89453125 119.6875 C26.27578125 119.955625 25.65703125 120.22375 25.01953125 120.5 C22.59500795 121.64306848 22.59500795 121.64306848 20.89453125 124.6875 C24.85453125 128.1525 24.85453125 128.1525 28.89453125 131.6875 C28.62640625 132.62078125 28.35828125 133.5540625 28.08203125 134.515625 C26.66406569 139.4834973 25.27232478 144.45834517 23.89453125 149.4375 C23.50394531 150.82582031 23.50394531 150.82582031 23.10546875 152.2421875 C21.53915037 157.92206931 20.28988732 163.57071842 19.32421875 169.38378906 C18.89453125 171.6875 18.89453125 171.6875 17.89453125 174.6875 C17.53612903 177.01711443 17.20604413 179.35115343 16.89453125 181.6875 C16.00564236 188.35416667 16.00564236 188.35416667 14.89453125 191.6875 C14.80999255 194.1285776 14.77847339 196.54009213 14.796875 198.98046875 C14.79828995 199.68649734 14.7997049 200.39252594 14.80116272 201.11994934 C14.80675361 203.37167626 14.81930437 205.62330321 14.83203125 207.875 C14.83704743 209.40299335 14.84161013 210.93098827 14.84570312 212.45898438 C14.85672005 216.20186135 14.87397838 219.94466373 14.89453125 223.6875 C16.54453125 223.6875 18.19453125 223.6875 19.89453125 223.6875 C19.89453125 223.0275 19.89453125 222.3675 19.89453125 221.6875 C20.55453125 221.6875 21.21453125 221.6875 21.89453125 221.6875 C21.89453125 220.6975 21.89453125 219.7075 21.89453125 218.6875 C22.55453125 218.6875 23.21453125 218.6875 23.89453125 218.6875 C24.22453125 217.3675 24.55453125 216.0475 24.89453125 214.6875 C25.55453125 214.6875 26.21453125 214.6875 26.89453125 214.6875 C27.22453125 213.0375 27.55453125 211.3875 27.89453125 209.6875 C28.55453125 209.6875 29.21453125 209.6875 29.89453125 209.6875 C30.22453125 207.7075 30.55453125 205.7275 30.89453125 203.6875 C31.55453125 203.6875 32.21453125 203.6875 32.89453125 203.6875 C32.89453125 202.6975 32.89453125 201.7075 32.89453125 200.6875 C33.55453125 200.6875 34.21453125 200.6875 34.89453125 200.6875 C35.01828125 199.924375 35.14203125 199.16125 35.26953125 198.375 C35.89453125 195.6875 35.89453125 195.6875 37.89453125 192.6875 C39.17377097 188.39828446 39.97323815 184.39371026 40.33203125 179.9375 C40.83010796 174.01592132 42.33222446 168.40613239 43.89453125 162.6875 C44.55453125 162.6875 45.21453125 162.6875 45.89453125 162.6875 C45.99765625 161.388125 46.10078125 160.08875 46.20703125 158.75 C47.0578714 151.1987937 49.81577351 144.56439148 53.02734375 137.73046875 C53.87622259 135.73063256 54.428017 133.80585551 54.89453125 131.6875 C55.55453125 131.6875 56.21453125 131.6875 56.89453125 131.6875 C57.01828125 130.78 57.14203125 129.8725 57.26953125 128.9375 C57.81562802 126.09779677 58.46716928 124.16159409 59.89453125 121.6875 C60.55453125 121.6875 61.21453125 121.6875 61.89453125 121.6875 C61.99765625 120.470625 62.10078125 119.25375 62.20703125 118 C62.69730265 114.26996219 63.29685305 111.55390353 65.89453125 108.6875 C70.30701963 107.50366166 73.26451504 109.20340577 77.08203125 111.3125 C81.10073286 113.90462325 83.80211603 115.82128677 84.89453125 120.6875 C83.70703125 124.25 83.70703125 124.25 81.89453125 127.6875 C81.22176409 129.3517135 80.5524629 131.01736582 79.89453125 132.6875 C79.23453125 132.6875 78.57453125 132.6875 77.89453125 132.6875 C76.90453125 136.9775 75.91453125 141.2675 74.89453125 145.6875 C74.23453125 145.6875 73.57453125 145.6875 72.89453125 145.6875 C72.81203125 146.63625 72.72953125 147.585 72.64453125 148.5625 C72.0666433 152.63213344 70.58722571 156.1055445 69.0078125 159.87890625 C66.0798163 167.2656756 63.91792473 174.94248589 62.328125 182.72265625 C61.89453125 184.6875 61.89453125 184.6875 60.83203125 188 C59.24427593 194.24517094 57.9042847 201.41747514 59.89453125 207.6875 C60.57515625 206.945 60.57515625 206.945 61.26953125 206.1875 C62.89453125 204.6875 62.89453125 204.6875 64.89453125 204.6875 C65.22453125 203.3675 65.55453125 202.0475 65.89453125 200.6875 C66.55453125 200.6875 67.21453125 200.6875 67.89453125 200.6875 C67.89453125 199.6975 67.89453125 198.7075 67.89453125 197.6875 C68.55453125 197.6875 69.21453125 197.6875 69.89453125 197.6875 C70.22453125 196.0375 70.55453125 194.3875 70.89453125 192.6875 C71.55453125 192.6875 72.21453125 192.6875 72.89453125 192.6875 C73.01828125 191.945 73.14203125 191.2025 73.26953125 190.4375 C73.84939826 187.88608515 74.63161864 185.9607427 75.89453125 183.6875 C76.55453125 183.6875 77.21453125 183.6875 77.89453125 183.6875 C77.98734375 182.84445312 78.08015625 182.00140625 78.17578125 181.1328125 C78.98968958 177.2313606 80.53154854 174.0415641 82.39453125 170.5625 C85.22299706 165.34818889 85.22299706 165.34818889 86.89453125 159.6875 C87.55453125 159.6875 88.21453125 159.6875 88.89453125 159.6875 C89.22453125 157.3775 89.55453125 155.0675 89.89453125 152.6875 C90.55453125 152.6875 91.21453125 152.6875 91.89453125 152.6875 C92.01828125 151.98625 92.14203125 151.285 92.26953125 150.5625 C92.9329147 147.51093613 93.8666508 144.63409062 94.89453125 141.6875 C95.55453125 141.6875 96.21453125 141.6875 96.89453125 141.6875 C97.04341797 140.15802734 97.04341797 140.15802734 97.1953125 138.59765625 C97.92345606 134.52574728 99.13897468 131.75804396 101.08203125 128.125 C104.22168072 122.12485314 106.93411841 116.05405778 109.55078125 109.8046875 C110.63957325 107.27894327 111.79531577 104.8647133 113.08203125 102.4375 C115.0401188 98.67634017 116.1661081 94.77195341 117.28125 90.69140625 C117.89453125 88.6875 117.89453125 88.6875 118.89453125 87.6875 C124.53238911 86.67557679 128.09767683 89.24397569 132.72265625 92.08203125 C134.89453125 93.6875 134.89453125 93.6875 136.89453125 96.6875 C137.50050865 101.89890565 135.89167513 105.97487195 133.89453125 110.6875 C133.06035317 112.66631077 132.22707739 114.64550207 131.39453125 116.625 C130.96785156 117.63949219 130.54117187 118.65398437 130.1015625 119.69921875 C128.50784901 123.6448201 127.17889752 127.63160651 125.89453125 131.6875 C125.23453125 131.6875 124.57453125 131.6875 123.89453125 131.6875 C123.77078125 132.595 123.64703125 133.5025 123.51953125 134.4375 C122.96369876 137.32782894 122.25369785 139.13906262 120.89453125 141.6875 C120.52668994 143.0117287 120.18250144 144.34363912 119.89453125 145.6875 C119.23453125 145.6875 118.57453125 145.6875 117.89453125 145.6875 C117.76175781 146.39261719 117.62898438 147.09773437 117.4921875 147.82421875 C116.88049136 150.75476299 116.13139595 153.6153361 115.33203125 156.5 C115.06261719 157.47582031 114.79320312 158.45164063 114.515625 159.45703125 C114.20818359 160.56111328 114.20818359 160.56111328 113.89453125 161.6875 C113.23453125 161.6875 112.57453125 161.6875 111.89453125 161.6875 C112.08144531 162.25082031 112.26835937 162.81414062 112.4609375 163.39453125 C112.97223124 166.09839997 112.54325419 167.73027279 111.83203125 170.375 C110.65688033 175.61259317 111.30307565 179.61932601 112.89453125 184.6875 C116.05568901 183.31766497 116.88724045 182.6984362 118.89453125 179.6875 C119.55453125 179.6875 120.21453125 179.6875 120.89453125 179.6875 C121.1471875 179.14996094 121.39984375 178.61242187 121.66015625 178.05859375 C123.16102077 175.175604 124.89664732 172.49038392 126.64453125 169.75 C131.27762176 162.35338605 136.09764826 154.30014607 137.89453125 145.6875 C138.55453125 145.6875 139.21453125 145.6875 139.89453125 145.6875 C139.99765625 144.553125 140.10078125 143.41875 140.20703125 142.25 C140.92383279 136.57532116 142.86661588 131.46966764 144.83984375 126.12890625 C147.0803937 120.05119398 149.06586772 113.95391261 150.8671875 107.73046875 C151.94940454 104.52496657 153.33306122 101.68675927 154.89453125 98.6875 C155.40371094 97.61113281 155.91289062 96.53476563 156.4375 95.42578125 C160.67280629 86.60306482 165.3596355 77.18528932 172.89453125 70.6875 C173.55453125 70.6875 174.21453125 70.6875 174.89453125 70.6875 C175.22453125 69.6975 175.55453125 68.7075 175.89453125 67.6875 C181.92482627 63.12148028 189.24383432 62.24747773 196.578125 62.94140625 C200.59114253 63.60328581 203.21834652 64.1296476 206.39453125 66.75 C209.21589412 68.93655622 210.24341138 68.97200923 213.70703125 69.1875 C219.93109692 69.58635965 224.22643769 71.74051281 229.20703125 75.375 C236.17640087 84.92561763 235.03703784 97.44469842 234.05078125 108.5625 C233.64270588 111.59328358 233.64270588 111.59328358 234.89453125 113.6875 C237.28017202 113.11165568 239.56135909 112.46522405 241.89453125 111.6875 C242.96938235 109.87243364 242.96938235 109.87243364 243.89453125 107.6875 C244.82085825 106.13909416 245.75928944 104.59789175 246.70703125 103.0625 C253.46247449 93.05933729 253.46247449 93.05933729 254.89453125 81.6875 C253.96640625 80.32625 253.96640625 80.32625 253.01953125 78.9375 C250.20175973 74.62796709 248.99009596 70.84799434 248.89453125 65.6875 C249.74825559 61.78333371 250.89667149 58.1601206 252.89453125 54.6875 C254.37953125 54.1925 254.37953125 54.1925 255.89453125 53.6875 C256.62776921 51.67241642 256.62776921 51.67241642 256.89453125 49.6875 C257.55453125 49.6875 258.21453125 49.6875 258.89453125 49.6875 C258.89453125 49.0275 258.89453125 48.3675 258.89453125 47.6875 C267.56351106 40.80218196 278.88537193 37.49270752 289.89453125 38.6875 C296.4177639 39.94636946 302.62075086 42.37507919 306.4765625 47.9921875 C310.30619625 55.25414429 311.61636766 61.54790968 309.89453125 69.6875 C309.23453125 70.6775 308.57453125 71.6675 307.89453125 72.6875 C307.23453125 72.6875 306.57453125 72.6875 305.89453125 72.6875 C305.89453125 73.3475 305.89453125 74.0075 305.89453125 74.6875 C297.78089489 76.27840909 297.78089489 76.27840909 293.89453125 73.6875 C289.67809599 67.29014995 290.61707014 60.09673939 290.89453125 52.6875 C286.58356849 51.68235324 283.26618093 51.91603241 278.89453125 52.6875 C278.56453125 53.6775 278.23453125 54.6675 277.89453125 55.6875 C277.23453125 55.6875 276.57453125 55.6875 275.89453125 55.6875 C275.56453125 56.6775 275.23453125 57.6675 274.89453125 58.6875 C274.23453125 58.6875 273.57453125 58.6875 272.89453125 58.6875 C272.89453125 59.6775 272.89453125 60.6675 272.89453125 61.6875 C272.23453125 61.6875 271.57453125 61.6875 270.89453125 61.6875 C270.89453125 65.6475 270.89453125 69.6075 270.89453125 73.6875 C271.55453125 73.6875 272.21453125 73.6875 272.89453125 73.6875 C273.22453125 74.6775 273.55453125 75.6675 273.89453125 76.6875 C276.04852448 78.62962485 276.04852448 78.62962485 278.89453125 80.6875 C280.22818782 81.68706887 281.56150037 82.68709686 282.89453125 83.6875 C283.57902344 84.19667969 284.26351562 84.70585937 284.96875 85.23046875 C286.57825767 86.44820985 288.14806911 87.71818668 289.70703125 89 C291.8750073 90.86381174 291.8750073 90.86381174 294.89453125 91.6875 C294.89453125 92.3475 294.89453125 93.0075 294.89453125 93.6875 C296.87453125 94.3475 298.85453125 95.0075 300.89453125 95.6875 C300.89453125 96.3475 300.89453125 97.0075 300.89453125 97.6875 C301.4565625 97.955625 302.01859375 98.22375 302.59765625 98.5 C305.05003771 99.7678979 307.33380808 101.17722342 309.64453125 102.6875 C310.44375 103.203125 311.24296875 103.71875 312.06640625 104.25 C312.6696875 104.724375 313.27296875 105.19875 313.89453125 105.6875 C313.89453125 106.3475 313.89453125 107.0075 313.89453125 107.6875 C314.88453125 108.0175 315.87453125 108.3475 316.89453125 108.6875 C318.28125 110.24609375 318.28125 110.24609375 319.58203125 112.125 C320.23751953 113.05119141 320.23751953 113.05119141 320.90625 113.99609375 C321.89453125 115.6875 321.89453125 115.6875 321.89453125 117.6875 C322.55453125 117.6875 323.21453125 117.6875 323.89453125 117.6875 C328.26933261 127.63023036 330.97432375 137.19389579 328.2890625 148.16015625 C327.55682099 150.02978813 326.72782414 151.86066559 325.89453125 153.6875 C325.13634619 156.33885017 324.51838558 159.00012751 323.89453125 161.6875 C323.23453125 161.6875 322.57453125 161.6875 321.89453125 161.6875 C321.79140625 162.42226562 321.68828125 163.15703125 321.58203125 163.9140625 C319.54241018 172.14207932 311.65517545 178.18794082 304.89453125 182.6875 C302.58148865 184.00600962 300.24261521 185.26048321 297.890625 186.5078125 C295.09507823 188.15997517 293.09031975 190.3136746 290.89453125 192.6875 C283.7492882 199.30992039 275.06045803 203.9375091 266.12890625 207.71875 C260.86211626 210.00225335 255.67255398 212.50215151 250.89453125 215.6875 C250.23453125 215.3575 249.57453125 215.0275 248.89453125 214.6875 C248.89453125 215.3475 248.89453125 216.0075 248.89453125 216.6875 C246.98041568 217.67164433 245.06313455 218.64963349 243.14453125 219.625 C242.0771875 220.17027344 241.00984375 220.71554687 239.91015625 221.27734375 C236.89453125 222.6875 236.89453125 222.6875 234.56640625 223.25390625 C233.73882813 223.46853516 233.73882813 223.46853516 232.89453125 223.6875 C232.56453125 224.3475 232.23453125 225.0075 231.89453125 225.6875 C229.89453125 226.35416667 227.89453125 227.02083333 225.89453125 227.6875 C225.56453125 228.3475 225.23453125 229.0075 224.89453125 229.6875 C222.92280085 230.74214649 220.91690177 231.73355164 218.89453125 232.6875 C217.28578125 233.491875 217.28578125 233.491875 215.64453125 234.3125 C213.26953125 235.5 213.26953125 235.5 210.89453125 236.6875 C210.23453125 236.3575 209.57453125 236.0275 208.89453125 235.6875 C208.56453125 236.3475 208.23453125 237.0075 207.89453125 237.6875 C205.24344683 239.9729176 203.23229276 240.85305962 199.89453125 241.6875 C199.21390625 242.203125 198.53328125 242.71875 197.83203125 243.25 C195.89453125 244.6875 195.89453125 244.6875 192.89453125 244.6875 C192.89453125 245.3475 192.89453125 246.0075 192.89453125 246.6875 C190.92986712 247.75525224 188.92597766 248.75303465 186.89453125 249.6875 C186.23453125 249.3575 185.57453125 249.0275 184.89453125 248.6875 C184.89453125 249.3475 184.89453125 250.0075 184.89453125 250.6875 C183.3203125 251.87109375 183.3203125 251.87109375 181.20703125 253.125 C180.47355469 253.56457031 179.74007813 254.00414062 178.984375 254.45703125 C177.94990234 255.06611328 177.94990234 255.06611328 176.89453125 255.6875 C176.02828125 256.22375 175.16203125 256.76 174.26953125 257.3125 C166.71271307 261.6875 166.71271307 261.6875 163.89453125 261.6875 C163.89453125 262.3475 163.89453125 263.0075 163.89453125 263.6875 C162.64717558 264.3384259 161.39651293 264.98301669 160.14453125 265.625 C159.4484375 265.98464844 158.75234375 266.34429687 158.03515625 266.71484375 C155.89453125 267.6875 155.89453125 267.6875 153.69140625 268.19140625 C153.0984375 268.35511719 152.50546875 268.51882813 151.89453125 268.6875 C151.56453125 269.3475 151.23453125 270.0075 150.89453125 270.6875 C149.59206666 271.48991122 148.25132944 272.23083428 146.89453125 272.9375 C143.63205643 274.69501013 140.5226526 276.54300048 137.45703125 278.625 C124.07767678 287.66131794 124.07767678 287.66131794 118.95703125 288.4375 C117.94640625 288.85 116.93578125 289.2625 115.89453125 289.6875 C115.0357037 291.67942588 115.0357037 291.67942588 114.51171875 294.1015625 C112.93984193 299.84990631 110.58177672 304.97720757 107.95703125 310.3125 C107.52712891 311.20195312 107.09722656 312.09140625 106.65429688 313.0078125 C105.81050614 314.74917123 104.96124477 316.48789207 104.10595703 318.22363281 C103.31241916 319.83757561 102.52912104 321.45660297 101.75732422 323.08105469 C99.1143304 328.57760043 99.1143304 328.57760043 96.89453125 329.6875 C95.98421853 332.03136809 95.98421853 332.03136809 95.26953125 334.75 C95.00914062 335.66910156 94.74875 336.58820313 94.48046875 337.53515625 C94.28710938 338.24542969 94.09375 338.95570313 93.89453125 339.6875 C105.4953543 340.50159285 116.25912807 336.74554692 126.57421875 331.7265625 C129.31390027 330.49970175 131.90532123 329.92986838 134.89453125 329.6875 C134.89453125 329.0275 134.89453125 328.3675 134.89453125 327.6875 C135.86390625 327.295625 136.83328125 326.90375 137.83203125 326.5 C141.69966704 324.86157181 145.26898981 322.81522473 148.87890625 320.67578125 C150.89453125 319.6875 150.89453125 319.6875 153.89453125 319.6875 C153.89453125 319.0275 153.89453125 318.3675 153.89453125 317.6875 C155.89453125 316.6875 157.89453125 315.6875 159.89453125 314.6875 C160.61640625 314.295625 161.33828125 313.90375 162.08203125 313.5 C163.89453125 312.6875 163.89453125 312.6875 166.89453125 312.6875 C167.22453125 311.6975 167.55453125 310.7075 167.89453125 309.6875 C170.51171875 307.86328125 170.51171875 307.86328125 173.76953125 306 C174.83945312 305.37738281 175.909375 304.75476563 177.01171875 304.11328125 C179.89453125 302.6875 179.89453125 302.6875 182.89453125 302.6875 C182.89453125 302.0275 182.89453125 301.3675 182.89453125 300.6875 C184.34990693 299.84901196 185.80893498 299.01686066 187.26953125 298.1875 C188.08164062 297.7234375 188.89375 297.259375 189.73046875 296.78125 C191.89453125 295.6875 191.89453125 295.6875 193.89453125 295.6875 C193.89453125 295.0275 193.89453125 294.3675 193.89453125 293.6875 C195.54453125 293.3575 197.19453125 293.0275 198.89453125 292.6875 C198.89453125 292.0275 198.89453125 291.3675 198.89453125 290.6875 C200.32747623 289.84635829 201.7660753 289.01484313 203.20703125 288.1875 C204.00753906 287.7234375 204.80804688 287.259375 205.6328125 286.78125 C207.89453125 285.6875 207.89453125 285.6875 210.89453125 285.6875 C210.89453125 285.0275 210.89453125 284.3675 210.89453125 283.6875 C213.16796875 282.171875 213.16796875 282.171875 216.26953125 280.4375 C217.37425781 279.81101562 218.47898437 279.18453125 219.6171875 278.5390625 C220.69871094 277.92804688 221.78023437 277.31703125 222.89453125 276.6875 C224.50282758 275.73611344 226.10732414 274.7782591 227.70703125 273.8125 C228.50109375 273.33425781 229.29515625 272.85601562 230.11328125 272.36328125 C231.03109375 271.81027344 231.94890625 271.25726563 232.89453125 270.6875 C235.49814107 269.12407158 238.10261375 267.56208247 240.70703125 266 C241.96355574 265.24611721 243.22006674 264.49221193 244.4765625 263.73828125 C245.60449219 263.06152344 246.73242188 262.38476562 247.89453125 261.6875 C248.78269531 261.15125 249.67085937 260.615 250.5859375 260.0625 C253.47223013 258.34342215 256.40195573 256.71544499 259.34375 255.09375 C261.18336854 254.0795652 263.01880768 253.05778639 264.8515625 252.03125 C265.83511719 251.4846875 266.81867187 250.938125 267.83203125 250.375 C269.20681641 249.60736328 269.20681641 249.60736328 270.609375 248.82421875 C272.89453125 247.6875 272.89453125 247.6875 274.89453125 247.6875 C274.89453125 247.0275 274.89453125 246.3675 274.89453125 245.6875 C276.54453125 245.3575 278.19453125 245.0275 279.89453125 244.6875 C279.89453125 244.0275 279.89453125 243.3675 279.89453125 242.6875 C280.64476562 242.32398438 281.395 241.96046875 282.16796875 241.5859375 C288.26101802 238.59312993 294.11767298 235.4510053 299.8359375 231.7890625 C301.89453125 230.6875 301.89453125 230.6875 304.89453125 230.6875 C304.89453125 230.0275 304.89453125 229.3675 304.89453125 228.6875 C306.54453125 228.3575 308.19453125 228.0275 309.89453125 227.6875 C309.89453125 227.0275 309.89453125 226.3675 309.89453125 225.6875 C313.50706745 223.83922566 317.10351935 222.13700455 320.89453125 220.6875 C320.89453125 220.0275 320.89453125 219.3675 320.89453125 218.6875 C321.76078125 218.275 322.62703125 217.8625 323.51953125 217.4375 C326.92971858 215.75386425 326.92971858 215.75386425 330.01953125 213.5625 C332.47847631 211.95884018 334.04628534 211.12569168 336.89453125 210.6875 C336.89453125 210.0275 336.89453125 209.3675 336.89453125 208.6875 C338.54453125 208.0275 340.19453125 207.3675 341.89453125 206.6875 C341.89453125 206.0275 341.89453125 205.3675 341.89453125 204.6875 C343.54453125 204.3575 345.19453125 204.0275 346.89453125 203.6875 C347.22453125 202.6975 347.55453125 201.7075 347.89453125 200.6875 C353.26595982 196.6875 353.26595982 196.6875 355.89453125 196.6875 C355.89453125 196.0275 355.89453125 195.3675 355.89453125 194.6875 C357.3203125 193.3984375 357.3203125 193.3984375 359.20703125 192.0625 C360.12935547 191.39347656 360.12935547 191.39347656 361.0703125 190.7109375 C362.89453125 189.6875 362.89453125 189.6875 365.89453125 189.6875 C366.22453125 188.6975 366.55453125 187.7075 366.89453125 186.6875 C367.55453125 186.6875 368.21453125 186.6875 368.89453125 186.6875 C369.22453125 185.6975 369.55453125 184.7075 369.89453125 183.6875 C374.35167411 179.6875 374.35167411 179.6875 376.89453125 179.6875 C377.22453125 178.6975 377.55453125 177.7075 377.89453125 176.6875 C382.35167411 172.6875 382.35167411 172.6875 384.89453125 172.6875 C384.89453125 172.0275 384.89453125 171.3675 384.89453125 170.6875 C390.37072173 165.6875 390.37072173 165.6875 392.89453125 165.6875 C393.22453125 164.6975 393.55453125 163.7075 393.89453125 162.6875 C394.55453125 162.6875 395.21453125 162.6875 395.89453125 162.6875 C395.89453125 162.0275 395.89453125 161.3675 395.89453125 160.6875 C401.37072173 155.6875 401.37072173 155.6875 403.89453125 155.6875 C404.14203125 155.130625 404.38953125 154.57375 404.64453125 154 C406.12377943 151.26339087 407.82920564 149.01099131 409.89453125 146.6875 C410.55453125 146.6875 411.21453125 146.6875 411.89453125 146.6875 C411.89453125 145.6975 411.89453125 144.7075 411.89453125 143.6875 C412.55453125 143.6875 413.21453125 143.6875 413.89453125 143.6875 C414.55453125 142.3675 415.21453125 141.0475 415.89453125 139.6875 C419.35546259 139.48783088 422.09598155 139.35988987 425.33203125 140.6875 C427.32798316 143.24231845 427.44270712 145.35354303 427.30078125 148.546875 C426.61937422 152.13736588 424.91016115 154.66405515 422.89453125 157.6875 C422.23453125 157.6875 421.57453125 157.6875 420.89453125 157.6875 C420.89453125 158.6775 420.89453125 159.6675 420.89453125 160.6875 C420.23453125 160.6875 419.57453125 160.6875 418.89453125 160.6875 C418.56453125 162.0075 418.23453125 163.3275 417.89453125 164.6875 C417.23453125 164.6875 416.57453125 164.6875 415.89453125 164.6875 C415.56453125 165.6775 415.23453125 166.6675 414.89453125 167.6875 C414.23453125 167.6875 413.57453125 167.6875 412.89453125 167.6875 C412.64703125 168.265 412.39953125 168.8425 412.14453125 169.4375 C410.71153137 172.01689979 409.11028449 173.74871592 406.89453125 175.6875 C406.23453125 175.6875 405.57453125 175.6875 404.89453125 175.6875 C404.89453125 176.3475 404.89453125 177.0075 404.89453125 177.6875 C403.2602037 179.16519218 401.55976757 180.57019319 399.83203125 181.9375 C398.82914063 182.74058594 397.82625 183.54367187 396.79296875 184.37109375 C395.83648438 185.13550781 394.88 185.89992188 393.89453125 186.6875 C392.57532248 187.78364256 391.26150149 188.88635838 389.95703125 190 C389.45300781 190.42925781 388.94898438 190.85851562 388.4296875 191.30078125 C386.83441963 192.70158272 386.83441963 192.70158272 385.26953125 194.43359375 C381.72558933 197.79684127 377.78036696 200.56877235 373.83203125 203.4375 C372.97875244 204.06076172 372.12547363 204.68402344 371.24633789 205.32617188 C369.55580562 206.56055426 367.86434349 207.79366434 366.171875 209.02539062 C364.29089661 210.39821448 362.41765556 211.77999023 360.55078125 213.171875 C355.57875479 216.85803255 350.53722289 220.19181218 345.1875 223.3046875 C343.02325901 224.60986861 340.99368874 226.00559723 338.95703125 227.5 C335.89453125 229.6875 335.89453125 229.6875 332.89453125 230.6875 C332.56453125 231.3475 332.23453125 232.0075 331.89453125 232.6875 C330.38169147 233.51347574 328.83320637 234.27485157 327.26953125 235 C323.38579478 236.87566818 320.03160795 238.92741562 316.59375 241.5078125 C314.21793217 243.15723085 311.68293533 244.33801852 309.078125 245.58203125 C305.67000363 247.3074308 302.44417031 249.32100211 299.19140625 251.3203125 C296.89453125 252.6875 296.89453125 252.6875 294.66015625 253.7421875 C292.71525676 254.56485202 292.71525676 254.56485202 291.89453125 256.6875 C290.11597921 257.62959017 288.2960216 258.49463953 286.45703125 259.3125 C285.46832031 259.75851562 284.47960937 260.20453125 283.4609375 260.6640625 C280.89453125 261.6875 280.89453125 261.6875 278.89453125 261.6875 C278.89453125 262.3475 278.89453125 263.0075 278.89453125 263.6875 C277.19296875 264.120625 277.19296875 264.120625 275.45703125 264.5625 C274.28140625 264.93375 273.10578125 265.305 271.89453125 265.6875 C271.56453125 266.3475 271.23453125 267.0075 270.89453125 267.6875 C269.48851136 268.71135627 268.04486177 269.68409592 266.58203125 270.625 C264.24875807 272.1329501 261.96767491 273.63173966 259.7578125 275.31640625 C257.5885379 276.91266492 255.388837 277.6897777 252.89453125 278.6875 C251.54663778 279.66778616 250.2124041 280.66721135 248.89453125 281.6875 C248.33894531 281.96335937 247.78335938 282.23921875 247.2109375 282.5234375 C244.01278382 284.13060411 240.96125177 285.97106647 237.89453125 287.8125 C237.23461182 288.20848389 236.57469238 288.60446777 235.89477539 289.01245117 C229.76489236 292.71842862 223.81856349 296.66053776 217.89453125 300.6875 C214.03308163 303.30740742 210.13523345 305.75103529 206.08203125 308.0625 C200.87250502 311.07888 195.86090718 314.28992513 190.89453125 317.6875 C189.29235048 318.77376819 187.68819627 319.85713167 186.08203125 320.9375 C185.37433594 321.41703125 184.66664063 321.8965625 183.9375 322.390625 C180.29091469 324.70547456 177.16822598 325.97521754 172.89453125 326.6875 C172.56453125 327.6775 172.23453125 328.6675 171.89453125 329.6875 C169.8984375 330.85546875 169.8984375 330.85546875 167.45703125 331.875 C166.65394531 332.21917969 165.85085938 332.56335938 165.0234375 332.91796875 C162.89453125 333.6875 162.89453125 333.6875 160.89453125 333.6875 C160.89453125 334.3475 160.89453125 335.0075 160.89453125 335.6875 C141.69357524 346.10753101 141.69357524 346.10753101 133.890625 348.90625 C131.83054336 349.71254418 129.91688475 350.66294292 127.95703125 351.6875 C116.38305597 357.5985751 101.94105236 361.02422566 89.08984375 358.03515625 C82.47597492 355.69316319 77.3518709 351.79676363 73.7265625 345.734375 C71.64948384 340.62456646 72.50508024 335.16652095 74.39453125 330.125 C74.88953125 328.990625 75.38453125 327.85625 75.89453125 326.6875 C76.55453125 326.6875 77.21453125 326.6875 77.89453125 326.6875 C78.22453125 324.7075 78.55453125 322.7275 78.89453125 320.6875 C79.55453125 320.6875 80.21453125 320.6875 80.89453125 320.6875 C81.03890625 319.965625 81.18328125 319.24375 81.33203125 318.5 C81.85286458 315.89583333 82.37369792 313.29166667 82.89453125 310.6875 C82.29125 311.120625 81.68796875 311.55375 81.06640625 312 C80.2671875 312.556875 79.46796875 313.11375 78.64453125 313.6875 C77.855625 314.244375 77.06671875 314.80125 76.25390625 315.375 C73.89453125 316.6875 73.89453125 316.6875 69.89453125 316.6875 C69.89453125 317.3475 69.89453125 318.0075 69.89453125 318.6875 C68.29420988 319.52819415 66.68911954 320.35981505 65.08203125 321.1875 C64.18871094 321.6515625 63.29539062 322.115625 62.375 322.59375 C59.89453125 323.6875 59.89453125 323.6875 56.89453125 323.6875 C56.89453125 324.3475 56.89453125 325.0075 56.89453125 325.6875 C56.27964844 325.94144531 55.66476562 326.19539063 55.03125 326.45703125 C53.81888672 326.97330078 53.81888672 326.97330078 52.58203125 327.5 C51.78152344 327.83644531 50.98101562 328.17289062 50.15625 328.51953125 C46.35516312 330.4824414 44.62370147 332.83012028 42.89453125 336.6875 C42.23453125 336.6875 41.57453125 336.6875 40.89453125 336.6875 C40.79140625 337.409375 40.68828125 338.13125 40.58203125 338.875 C39.82719158 341.96298048 38.60269874 344.02275871 36.89453125 346.6875 C36.21356703 348.01358822 35.54122539 349.34436601 34.89453125 350.6875 C34.23453125 350.6875 33.57453125 350.6875 32.89453125 350.6875 C32.79140625 351.409375 32.68828125 352.13125 32.58203125 352.875 C31.82659178 355.96543421 30.7392181 358.10493841 28.89453125 360.6875 C28.23453125 360.6875 27.57453125 360.6875 26.89453125 360.6875 C26.77078125 361.244375 26.64703125 361.80125 26.51953125 362.375 C25.8347627 364.90864364 24.90319362 367.26671032 23.89453125 369.6875 C23.23453125 369.6875 22.57453125 369.6875 21.89453125 369.6875 C21.56453125 371.3375 21.23453125 372.9875 20.89453125 374.6875 C20.23453125 374.6875 19.57453125 374.6875 18.89453125 374.6875 C18.60578125 375.780625 18.31703125 376.87375 18.01953125 378 C16.89453125 381.6875 16.89453125 381.6875 14.89453125 384.6875 C14.23453125 384.6875 13.57453125 384.6875 12.89453125 384.6875 C12.80042969 385.21859375 12.70632813 385.7496875 12.609375 386.296875 C11.66007506 389.47158301 10.12004402 392.07476699 8.45703125 394.9375 C7.83957031 396.01515625 7.22210938 397.0928125 6.5859375 398.203125 C6.02777344 399.02296875 5.46960938 399.8428125 4.89453125 400.6875 C4.23453125 400.6875 3.57453125 400.6875 2.89453125 400.6875 C2.66765625 401.533125 2.44078125 402.37875 2.20703125 403.25 C0.85966564 406.77881469 -0.78384478 409.2227571 -3.08203125 412.171875 C-4.29200861 413.65894832 -4.29200861 413.65894832 -4.10546875 415.6875 C-5.10546875 416.6875 -6.10546875 417.6875 -7.10546875 418.6875 C-8.28121586 420.78739652 -8.28121586 420.78739652 -9.10546875 422.6875 C-9.76546875 422.6875 -10.42546875 422.6875 -11.10546875 422.6875 C-11.35296875 423.38875 -11.60046875 424.09 -11.85546875 424.8125 C-13.28078637 428.09073052 -15.06894644 430.74585667 -17.10546875 433.6875 C-18.06630607 435.12332752 -19.02444682 436.56096175 -19.98046875 438 C-21.5644527 440.37999619 -23.15233197 442.75679538 -24.75390625 445.125 C-25.54667969 446.300625 -25.54667969 446.300625 -26.35546875 447.5 C-26.835 448.20769531 -27.31453125 448.91539062 -27.80859375 449.64453125 C-29.05483012 451.6077289 -30.10604301 453.58964879 -31.10546875 455.6875 C-31.76546875 455.6875 -32.42546875 455.6875 -33.10546875 455.6875 C-33.35554687 456.40035156 -33.605625 457.11320312 -33.86328125 457.84765625 C-35.23252663 460.9779751 -36.92901539 463.39617997 -38.98046875 466.125 C-41.2441593 469.15965763 -43.46561869 472.16955672 -45.48046875 475.375 C-46.01671875 476.138125 -46.55296875 476.90125 -47.10546875 477.6875 C-47.76546875 477.6875 -48.42546875 477.6875 -49.10546875 477.6875 C-49.76546875 479.3375 -50.42546875 480.9875 -51.10546875 482.6875 C-51.76546875 482.6875 -52.42546875 482.6875 -53.10546875 482.6875 C-53.76546875 484.6675 -54.42546875 486.6475 -55.10546875 488.6875 C-55.76546875 488.6875 -56.42546875 488.6875 -57.10546875 488.6875 C-57.37875 489.27144531 -57.65203125 489.85539062 -57.93359375 490.45703125 C-62.22597713 498.62686762 -69.34808068 505.66518191 -75.21777344 512.74682617 C-75.80461914 513.45556885 -76.39146484 514.16431152 -76.99609375 514.89453125 C-77.52235352 515.5285083 -78.04861328 516.16248535 -78.59082031 516.81567383 C-79.6680476 518.14692812 -80.69132356 519.52262564 -81.67480469 520.92456055 C-82.14692383 521.50633057 -82.61904297 522.08810059 -83.10546875 522.6875 C-83.76546875 522.6875 -84.42546875 522.6875 -85.10546875 522.6875 C-85.10546875 523.3475 -85.10546875 524.0075 -85.10546875 524.6875 C-85.76546875 524.6875 -86.42546875 524.6875 -87.10546875 524.6875 C-87.31945312 525.21859375 -87.5334375 525.7496875 -87.75390625 526.296875 C-89.62009602 529.59776558 -92.14301756 532.19843102 -94.73046875 534.9375 C-95.26591309 535.50944092 -95.80135742 536.08138184 -96.35302734 536.6706543 C-97.93061576 538.34929736 -99.5162121 540.01990692 -101.10546875 541.6875 C-102.34296875 542.98880859 -102.34296875 542.98880859 -103.60546875 544.31640625 C-107.53682515 548.35616402 -107.53682515 548.35616402 -109.10546875 549.6875 C-109.76546875 549.6875 -110.42546875 549.6875 -111.10546875 549.6875 C-111.50765625 550.6465625 -111.50765625 550.6465625 -111.91796875 551.625 C-113.10546875 553.6875 -113.10546875 553.6875 -116.10546875 554.6875 C-116.10546875 555.3475 -116.10546875 556.0075 -116.10546875 556.6875 C-117.56640625 558.1953125 -117.56640625 558.1953125 -119.48046875 559.8125 C-120.10695312 560.35132813 -120.7334375 560.89015625 -121.37890625 561.4453125 C-123.10546875 562.6875 -123.10546875 562.6875 -125.10546875 562.6875 C-125.10546875 563.3475 -125.10546875 564.0075 -125.10546875 564.6875 C-127.52063938 567.26950808 -130.38706543 569.43489051 -133.10546875 571.6875 C-133.94271484 572.38311035 -133.94271484 572.38311035 -134.796875 573.09277344 C-183.67395383 613.59018323 -183.67395383 613.59018323 -211.73046875 611.5625 C-213.52731479 611.30465662 -215.31925514 611.01088804 -217.10546875 610.6875 C-218.19214844 610.5225 -219.27882813 610.3575 -220.3984375 610.1875 C-238.75017741 606.92858947 -252.85409237 596.22191758 -266.10546875 583.6875 C-266.69328125 583.14738281 -267.28109375 582.60726562 -267.88671875 582.05078125 C-269.10546875 580.6875 -269.10546875 580.6875 -269.10546875 578.6875 C-270.09546875 578.3575 -271.08546875 578.0275 -272.10546875 577.6875 C-279.65895584 569.26488783 -285.09711091 559.03152571 -286.10546875 547.6875 C-286.43546875 547.3575 -286.76546875 547.0275 -287.10546875 546.6875 C-288.4392847 538.76693863 -288.21024087 530.56599829 -288.23046875 522.5625 C-288.23506104 521.54986084 -288.23965332 520.53722168 -288.24438477 519.49389648 C-288.20838745 501.7904187 -288.20838745 501.7904187 -286.10546875 499.6875 C-285.55975503 496.26647115 -285.13911245 492.83504446 -284.703125 489.3984375 C-283.51936352 482.04828453 -280.91690972 475.21318396 -278.390625 468.23828125 C-277.61470201 466.09446969 -276.84864258 463.94700121 -276.1015625 461.79296875 C-273.91869916 455.55491158 -271.30424633 449.60409314 -268.47265625 443.6328125 C-267.25624262 441.01230999 -266.14894783 438.3806698 -265.10546875 435.6875 C-264.44546875 435.6875 -263.78546875 435.6875 -263.10546875 435.6875 C-263.01394531 435.01332031 -262.92242187 434.33914063 -262.828125 433.64453125 C-261.921941 429.93652428 -260.29263776 426.73921507 -258.54296875 423.375 C-258.21361328 422.72982422 -257.88425781 422.08464844 -257.54492188 421.41992188 C-256.7372262 419.83964772 -255.92209262 418.26317895 -255.10546875 416.6875 C-254.44546875 416.6875 -253.78546875 416.6875 -253.10546875 416.6875 C-252.77546875 415.0375 -252.44546875 413.3875 -252.10546875 411.6875 C-251.44546875 411.6875 -250.78546875 411.6875 -250.10546875 411.6875 C-249.99332031 411.12546875 -249.88117188 410.5634375 -249.765625 409.984375 C-249.01489536 407.37236892 -247.89379499 405.29278678 -246.54296875 402.9375 C-246.08792969 402.13828125 -245.63289063 401.3390625 -245.1640625 400.515625 C-244.81472656 399.91234375 -244.46539062 399.3090625 -244.10546875 398.6875 C-243.44546875 398.6875 -242.78546875 398.6875 -242.10546875 398.6875 C-241.77546875 397.3675 -241.44546875 396.0475 -241.10546875 394.6875 C-240.44546875 394.6875 -239.78546875 394.6875 -239.10546875 394.6875 C-238.9976709 394.11185303 -238.88987305 393.53620605 -238.77880859 392.94311523 C-238.01110261 390.3713837 -236.92441869 388.75387832 -235.33203125 386.59765625 C-234.75952637 385.81922363 -234.18702148 385.04079102 -233.59716797 384.23876953 C-232.98115723 383.41747559 -232.36514648 382.59618164 -231.73046875 381.75 C-230.78905029 380.48325439 -230.78905029 380.48325439 -229.82861328 379.19091797 C-225.2297265 373.05557168 -220.43553369 367.14067511 -215.41015625 361.3515625 C-213.85988468 359.55955367 -212.36476513 357.71847913 -210.92578125 355.8359375 C-210.32507813 355.12695312 -209.724375 354.41796875 -209.10546875 353.6875 C-208.44546875 353.6875 -207.78546875 353.6875 -207.10546875 353.6875 C-207.01265625 352.883125 -207.01265625 352.883125 -206.91796875 352.0625 C-205.70511611 348.51723843 -203.65935949 346.4282608 -201.10546875 343.6875 C-200.44546875 343.6875 -199.78546875 343.6875 -199.10546875 343.6875 C-198.77546875 342.6975 -198.44546875 341.7075 -198.10546875 340.6875 C-196.81887712 339.30900897 -195.4763379 337.98220975 -194.10546875 336.6875 C-193.28046875 335.82125 -192.45546875 334.955 -191.60546875 334.0625 C-189.10546875 331.6875 -189.10546875 331.6875 -186.91796875 330.625 C-184.96792458 329.84188049 -184.96792458 329.84188049 -184.23046875 327.9375 C-182.56190917 324.60038084 -179.99056003 322.03947658 -177.10546875 319.6875 C-176.44546875 319.6875 -175.78546875 319.6875 -175.10546875 319.6875 C-174.77546875 318.6975 -174.44546875 317.7075 -174.10546875 316.6875 C-172.51440445 315.24947818 -170.85686725 313.88424665 -169.16796875 312.5625 C-164.39226789 308.76181219 -159.85612223 304.7959693 -155.39453125 300.6328125 C-153.08479451 298.66993042 -150.71587636 297.21533054 -148.10546875 295.6875 C-147.44546875 295.0275 -146.78546875 294.3675 -146.10546875 293.6875 C-143.93695846 291.51898971 -141.81351639 290.11278823 -139.10546875 288.6875 C-138.44546875 288.6875 -137.78546875 288.6875 -137.10546875 288.6875 C-137.10546875 288.0275 -137.10546875 287.3675 -137.10546875 286.6875 C-135.82498388 286.08001415 -134.53050717 285.50192949 -133.23046875 284.9375 C-130.30628011 283.15053316 -129.26054947 282.22717904 -128.30029297 278.88549805 C-128.17154785 277.77215088 -128.04280273 276.65880371 -127.91015625 275.51171875 C-127.76433105 274.25955566 -127.61850586 273.00739258 -127.46826172 271.71728516 C-126.82197588 264.90626697 -126.44441967 258.08207857 -126.10546875 251.25 C-124.61045224 221.19248349 -124.61045224 221.19248349 -122.10546875 218.6875 C-121.89035887 217.06820061 -121.73463441 215.44090996 -121.60546875 213.8125 C-121.52296875 212.82765625 -121.44046875 211.8428125 -121.35546875 210.828125 C-121.27296875 209.79171875 -121.19046875 208.7553125 -121.10546875 207.6875 C-120.94292158 205.64550123 -120.7764684 203.60380832 -120.60546875 201.5625 C-120.53328125 200.65242187 -120.46109375 199.74234375 -120.38671875 198.8046875 C-120.10546875 196.6875 -120.10546875 196.6875 -119.10546875 195.6875 C-118.74968919 192.89507889 -118.44281963 190.11306813 -118.16796875 187.3125 C-117.44772259 180.3675643 -116.52229087 173.53044938 -115.10546875 166.6875 C-124.270238 168.58206574 -133.3748123 170.67329669 -142.4675293 172.88549805 C-148.32170438 174.29976848 -154.19325146 175.5415453 -160.10546875 176.6875 C-161.14058594 176.89632812 -162.17570312 177.10515625 -163.2421875 177.3203125 C-168.29335014 178.29496257 -172.94114232 178.79289442 -178.10546875 178.6875 C-178.66830566 178.84629639 -179.23114258 179.00509277 -179.81103516 179.16870117 C-183.14679545 179.9229564 -186.47502353 179.8909984 -189.87890625 179.92578125 C-190.63910065 179.933853 -191.39929504 179.94192474 -192.18252563 179.95024109 C-193.79467512 179.96405633 -195.40685353 179.97478992 -197.01904297 179.98266602 C-198.64217915 179.99409655 -200.26528047 180.01440387 -201.88818359 180.04418945 C-213.65502439 180.25977436 -226.51266438 180.38098543 -236.29296875 172.8125 C-240.19256946 168.87350938 -242.24309436 165.08807195 -242.35546875 159.5 C-242.10546875 155.6875 -242.10546875 155.6875 -241.10546875 152.6875 C-240.44546875 152.6875 -239.78546875 152.6875 -239.10546875 152.6875 C-239.02296875 151.90375 -238.94046875 151.12 -238.85546875 150.3125 C-238.60796875 149.44625 -238.36046875 148.58 -238.10546875 147.6875 C-236.78899756 146.98812468 -235.45524724 146.32020867 -234.10546875 145.6875 C-233.51476861 143.74146726 -233.51476861 143.74146726 -233.10546875 141.6875 C-231.66796875 139.9375 -231.66796875 139.9375 -230.10546875 138.6875 C-229.44546875 138.6875 -228.78546875 138.6875 -228.10546875 138.6875 C-227.85796875 138.089375 -227.61046875 137.49125 -227.35546875 136.875 C-225.9247435 134.37123081 -224.53631055 133.20677612 -222.10546875 131.6875 C-221.44546875 131.6875 -220.78546875 131.6875 -220.10546875 131.6875 C-220.10546875 131.0275 -220.10546875 130.3675 -220.10546875 129.6875 C-210.76661599 121.8733579 -199.84607799 115.80077105 -188.85546875 110.625 C-188.22374756 110.32601807 -187.59202637 110.02703613 -186.94116211 109.71899414 C-184.13487336 108.43783734 -182.22929534 107.6875 -179.10546875 107.6875 C-179.10546875 107.0275 -179.10546875 106.3675 -179.10546875 105.6875 C-175.64046875 105.1925 -175.64046875 105.1925 -172.10546875 104.6875 C-172.10546875 104.0275 -172.10546875 103.3675 -172.10546875 102.6875 C-145.41556832 92.25080014 -145.41556832 92.25080014 -138.10546875 94.6875 C-136.99043453 98.03260265 -137.08853009 98.50499371 -138.48046875 101.5625 C-142.7209214 109.42530543 -151.91935626 111.44402662 -159.80859375 114.3515625 C-164.04740652 116.06918568 -167.92749322 118.23252035 -171.86328125 120.55078125 C-174.10546875 121.6875 -174.10546875 121.6875 -177.10546875 121.6875 C-177.43546875 122.6775 -177.76546875 123.6675 -178.10546875 124.6875 C-179.43585324 125.0324145 -180.77003936 125.36266582 -182.10546875 125.6875 C-184.13678547 126.97261874 -186.13824867 128.30626037 -188.10546875 129.6875 C-191.10546875 131.6875 -191.10546875 131.6875 -193.23046875 132.125 C-193.84921875 132.310625 -194.46796875 132.49625 -195.10546875 132.6875 C-195.43546875 133.6775 -195.76546875 134.6675 -196.10546875 135.6875 C-198.10546875 136.35416667 -200.10546875 137.02083333 -202.10546875 137.6875 C-202.43546875 138.6775 -202.76546875 139.6675 -203.10546875 140.6875 C-203.76546875 140.6875 -204.42546875 140.6875 -205.10546875 140.6875 C-205.10546875 141.3475 -205.10546875 142.0075 -205.10546875 142.6875 C-205.76546875 142.6875 -206.42546875 142.6875 -207.10546875 142.6875 C-207.10546875 143.3475 -207.10546875 144.0075 -207.10546875 144.6875 C-207.76546875 144.6875 -208.42546875 144.6875 -209.10546875 144.6875 C-209.10546875 145.3475 -209.10546875 146.0075 -209.10546875 146.6875 C-210.75 148.23828125 -210.75 148.23828125 -212.91796875 150 C-216.00578107 152.63340022 -218.51204833 154.86329099 -220.10546875 158.6875 C-219.77546875 159.6775 -219.44546875 160.6675 -219.10546875 161.6875 C-216.23892501 163.12077187 -213.39596545 163.34524373 -210.23046875 163.8125 C-208.37808594 164.09480469 -208.37808594 164.09480469 -206.48828125 164.3828125 C-203.34439217 164.66598034 -202.03863717 164.42332211 -199.10546875 163.6875 C-196.94829794 163.48583963 -194.78728874 163.3237359 -192.625 163.1875 C-191.37912109 163.105 -190.13324219 163.0225 -188.84960938 162.9375 C-186.21684396 162.77009117 -183.58403084 162.60343104 -180.95117188 162.4375 C-179.70916016 162.355 -178.46714844 162.2725 -177.1875 162.1875 C-176.04514893 162.1153125 -174.90279785 162.043125 -173.72583008 161.96875 C-171.1816988 161.97293221 -171.1816988 161.97293221 -170.10546875 160.6875 C-167.58403492 160.33408348 -165.07289545 160.02715964 -162.54296875 159.75 C-161.06466556 159.57794634 -159.58678563 159.40221292 -158.109375 159.22265625 C-157.44236572 159.144104 -156.77535645 159.06555176 -156.08813477 158.98461914 C-153.409018 158.58313101 -150.8295711 157.92956036 -148.2265625 157.1875 C-145.19204624 156.47218125 -142.13199321 156.10239521 -139.04296875 155.6875 C-134.22609942 155.03158588 -129.75170486 154.1451427 -125.10546875 152.6875 C-120.13901355 151.48110929 -115.15811409 150.46483005 -110.10546875 149.6875 C-110.0796875 149.13964844 -110.05390625 148.59179688 -110.02734375 148.02734375 C-109.55098582 141.36915904 -108.01374199 135.2639367 -106.21875 128.84765625 C-104.76633311 123.56463325 -103.63262016 118.21284567 -102.50073242 112.85351562 C-101.60687355 108.68748643 -100.5174273 104.71606428 -99.10546875 100.6875 C-98.55607431 98.89818785 -98.01386369 97.10664661 -97.48046875 95.3125 C-97.22007812 94.43851562 -96.9596875 93.56453125 -96.69140625 92.6640625 C-96.40136719 91.68566406 -96.40136719 91.68566406 -96.10546875 90.6875 C-95.44546875 90.6875 -94.78546875 90.6875 -94.10546875 90.6875 C-93.77546875 87.3875 -93.44546875 84.0875 -93.10546875 80.6875 C-92.44546875 80.6875 -91.78546875 80.6875 -91.10546875 80.6875 C-91.04359375 79.49125 -90.98171875 78.295 -90.91796875 77.0625 C-90.200415 70.26748343 -87.54598151 64.01842425 -85.10546875 57.6875 C-84.44546875 57.6875 -83.78546875 57.6875 -83.10546875 57.6875 C-82.99332031 56.82898438 -82.88117188 55.97046875 -82.765625 55.0859375 C-82.07898711 51.5511744 -80.97252188 48.61146876 -79.54296875 45.3125 C-79.08792969 44.25289062 -78.63289062 43.19328125 -78.1640625 42.1015625 C-77.81472656 41.30492187 -77.46539062 40.50828125 -77.10546875 39.6875 C-76.44546875 39.6875 -75.78546875 39.6875 -75.10546875 39.6875 C-74.98365234 38.43066406 -74.98365234 38.43066406 -74.859375 37.1484375 C-73.94925722 32.97038387 -72.23503028 29.93943428 -70.04296875 26.3125 C-69.47739258 25.35150391 -69.47739258 25.35150391 -68.90039062 24.37109375 C-67.97707258 22.80495934 -67.04241482 21.24551966 -66.10546875 19.6875 C-65.44546875 19.6875 -64.78546875 19.6875 -64.10546875 19.6875 C-64.10546875 18.6975 -64.10546875 17.7075 -64.10546875 16.6875 C-63.11546875 16.1925 -63.11546875 16.1925 -62.10546875 15.6875 C-61.77546875 14.6975 -61.44546875 13.7075 -61.10546875 12.6875 C-60.44546875 12.6875 -59.78546875 12.6875 -59.10546875 12.6875 C-58.73421875 11.7903125 -58.73421875 11.7903125 -58.35546875 10.875 C-56.9247435 8.37123081 -55.53631055 7.20677612 -53.10546875 5.6875 C-52.44546875 5.6875 -51.78546875 5.6875 -51.10546875 5.6875 C-50.77546875 4.6975 -50.44546875 3.7075 -50.10546875 2.6875 C-47.33984375 1.37109375 -47.33984375 1.37109375 -43.85546875 0.125 C-42.14617187 -0.49568359 -42.14617187 -0.49568359 -40.40234375 -1.12890625 C-39.314375 -1.51949219 -38.22640625 -1.91007812 -37.10546875 -2.3125 C-36.21730469 -2.67988281 -35.32914063 -3.04726562 -34.4140625 -3.42578125 C-23.64519342 -7.56204738 -9.59959212 -6.36185987 0 0 Z M-43.10546875 23.6875 C-45.38281885 26.50259993 -45.38281885 26.50259993 -45.10546875 29.6875 C-46.09546875 30.1825 -46.09546875 30.1825 -47.10546875 30.6875 C-48.12527386 32.50858055 -49.07254129 34.3706372 -49.98046875 36.25 C-51.68335101 39.75909476 -53.39665557 43.24546176 -55.23046875 46.6875 C-57.34032426 50.88105579 -58.67916993 55.29115097 -60.10546875 59.75390625 C-60.97190165 62.2956684 -61.95188293 64.64267349 -63.10546875 67.0625 C-65.38323732 71.97533417 -66.73062008 77.0930714 -68.16015625 82.3046875 C-69.15295429 85.8574276 -70.27941955 89.33783916 -71.4921875 92.8203125 C-72.13028835 94.76306542 -72.63100521 96.69840285 -73.10546875 98.6875 C-73.58203547 100.66729432 -74.0614207 102.64641139 -74.54296875 104.625 C-74.78917969 105.64464844 -75.03539062 106.66429687 -75.2890625 107.71484375 C-76.10546875 110.6875 -76.10546875 110.6875 -77.140625 113.2265625 C-78.17701375 115.8699832 -78.66051542 118.32417771 -79.10546875 121.125 C-79.62187411 124.17057174 -80.17129079 126.88109425 -81.16796875 129.8125 C-82.44139042 133.7176598 -82.7610349 137.60867812 -83.10546875 141.6875 C-79.46772781 142.60983503 -76.98471324 142.65731112 -73.35546875 141.75 C-68.48312063 140.65994013 -64.08846505 140.52675818 -59.10546875 140.6875 C-60.7248334 145.07683051 -62.26623957 148.69515574 -66.54296875 150.9375 C-71.20032522 152.95101877 -76.13823538 154.15426638 -81.0546875 155.3671875 C-84.91772085 157.03902524 -87.17491798 158.99926988 -89.10546875 162.6875 C-90.18747439 166.39226956 -90.71936606 170.11701491 -91.23046875 173.9375 C-91.54901643 176.08340208 -91.86803164 178.2292348 -92.1875 180.375 C-92.41493896 181.96828125 -92.41493896 181.96828125 -92.64697266 183.59375 C-93.06997912 186.44803001 -93.54492156 189.28510189 -94.0546875 192.125 C-94.27390869 193.35234863 -94.27390869 193.35234863 -94.49755859 194.60449219 C-94.77093351 196.12154835 -95.04838288 197.6378779 -95.33056641 199.15332031 C-95.92927009 202.59156662 -96.36250161 205.36961735 -95.10546875 208.6875 C-95.76546875 208.6875 -96.42546875 208.6875 -97.10546875 208.6875 C-97.15445313 209.48671875 -97.2034375 210.2859375 -97.25390625 211.109375 C-97.6327236 216.67407124 -98.11242716 222.13362821 -99.10546875 227.625 C-100.11410034 233.2583942 -100.53583097 238.8504015 -100.88671875 244.55859375 C-101.10546875 247.6875 -101.10546875 247.6875 -101.66796875 251.5625 C-102.19449113 255.32337415 -102.17205075 258.89232606 -102.10546875 262.6875 C-96.95202292 262.11261361 -92.91312794 259.69883592 -88.48046875 257.1875 C-87.33578125 256.59195313 -87.33578125 256.59195313 -86.16796875 255.984375 C-82.0584108 253.64841574 -79.76280929 251.87195595 -78.23828125 247.30859375 C-77.84348042 245.77254679 -77.4651883 244.23213905 -77.10546875 242.6875 C-76.69369171 241.41292186 -76.26743571 240.14289537 -75.82421875 238.87890625 C-73.93919627 233.26613099 -72.05717472 227.65214803 -70.29296875 222 C-70.05964844 221.25363281 -69.82632813 220.50726563 -69.5859375 219.73828125 C-68.95339614 217.38946173 -68.95339614 217.38946173 -69.10546875 213.6875 C-68.44546875 213.6875 -67.78546875 213.6875 -67.10546875 213.6875 C-66.74195313 212.12902344 -66.74195313 212.12902344 -66.37109375 210.5390625 C-64.7209928 203.6166269 -62.99287284 197.00810953 -60.18359375 190.453125 C-58.71832226 186.6943851 -57.56308748 182.86658631 -56.41796875 179 C-56.20342041 178.28658447 -55.98887207 177.57316895 -55.76782227 176.83813477 C-54.49313877 172.46146701 -53.64540129 168.21462672 -53.10546875 163.6875 C-52.44546875 163.6875 -51.78546875 163.6875 -51.10546875 163.6875 C-50.99589844 163.14222656 -50.88632812 162.59695312 -50.7734375 162.03515625 C-49.2510338 154.79445571 -47.20324352 147.9776101 -44.10546875 141.25 C-42.35839679 137.41962715 -41.10593251 133.59896304 -39.953125 129.5546875 C-38.92275897 126.06948626 -37.76816268 122.63012051 -36.60546875 119.1875 C-34.9584986 114.29141331 -33.38173483 109.38486886 -31.921875 104.4296875 C-30.82230511 100.73639535 -29.68566957 97.05514439 -28.54296875 93.375 C-28.22779297 92.35128296 -28.22779297 92.35128296 -27.90625 91.30688477 C-27.05507991 88.57256818 -26.18696489 85.88327809 -25.0859375 83.23828125 C-23.7001637 79.63306097 -22.85642041 75.94435934 -21.98046875 72.1875 C-21.79871094 71.44113281 -21.61695313 70.69476563 -21.4296875 69.92578125 C-20.53044123 66.10567493 -19.87005244 62.64249405 -20.10546875 58.6875 C-21.32169922 59.17669922 -21.32169922 59.17669922 -22.5625 59.67578125 C-28.92978395 62.18859762 -35.22895685 64.41634266 -41.86328125 66.109375 C-43.63034735 66.56499483 -45.37425506 67.11042877 -47.10546875 67.6875 C-49.73046875 67.8125 -49.73046875 67.8125 -52.10546875 67.6875 C-53.10546875 66.6875 -53.10546875 66.6875 -53.16796875 63.625 C-53.14734375 62.655625 -53.12671875 61.68625 -53.10546875 60.6875 C-49.80997409 58.96485506 -46.7742803 57.39304068 -43.10546875 56.6875 C-43.10546875 56.0275 -43.10546875 55.3675 -43.10546875 54.6875 C-40.46546875 54.3575 -37.82546875 54.0275 -35.10546875 53.6875 C-35.10546875 53.0275 -35.10546875 52.3675 -35.10546875 51.6875 C-34.01234375 51.605 -32.91921875 51.5225 -31.79296875 51.4375 C-26.26417197 50.77245622 -21.25552251 48.72290728 -16.10546875 46.6875 C-15.5680928 43.33576952 -15.05360077 39.98090039 -14.54296875 36.625 C-14.39150391 35.68205078 -14.24003906 34.73910156 -14.08398438 33.76757812 C-13.28959603 28.46549778 -12.99478507 24.00242805 -14.10546875 18.6875 C-14.35296875 17.470625 -14.60046875 16.25375 -14.85546875 15 C-16.33377429 11.08249031 -17.45597899 9.71499431 -21.10546875 7.6875 C-31.40485263 5.54989203 -37.80935342 16.30156619 -43.10546875 23.6875 Z M5.89453125 50.6875 C5.89453125 51.3475 5.89453125 52.0075 5.89453125 52.6875 C4.90453125 53.1825 4.90453125 53.1825 3.89453125 53.6875 C3.89453125 54.3475 3.89453125 55.0075 3.89453125 55.6875 C3.60453961 57.17124362 3.28883586 58.65004374 2.95703125 60.125 C2.69599609 61.29869141 2.69599609 61.29869141 2.4296875 62.49609375 C1.89453125 64.6875 1.89453125 64.6875 0.89453125 67.6875 C1.22453125 68.3475 1.55453125 69.0075 1.89453125 69.6875 C1.23453125 70.0175 0.57453125 70.3475 -0.10546875 70.6875 C-0.868902 72.62450906 -0.868902 72.62450906 -1.4375 75 C-1.6761377 75.90250488 -1.91477539 76.80500977 -2.16064453 77.73486328 C-2.41056152 78.7092334 -2.66047852 79.68360352 -2.91796875 80.6875 C-3.45182527 82.70607336 -3.98699594 84.72429959 -4.5234375 86.7421875 C-4.78946777 87.74862305 -5.05549805 88.75505859 -5.32958984 89.79199219 C-6.40773824 93.81554158 -7.55205737 97.81729633 -8.73046875 101.8125 C-9.03210938 102.83645874 -9.03210938 102.83645874 -9.33984375 103.88110352 C-10.90106864 109.12026301 -12.60960096 114.30214077 -14.40625 119.46484375 C-15.20549813 121.61712973 -15.20549813 121.61712973 -15.10546875 123.6875 C-11.63605329 123.22927532 -8.43151826 122.79618317 -5.10546875 121.6875 C-5.10546875 121.0275 -5.10546875 120.3675 -5.10546875 119.6875 C-2.63046875 119.1925 -2.63046875 119.1925 -0.10546875 118.6875 C-0.10546875 118.0275 -0.10546875 117.3675 -0.10546875 116.6875 C1.22484375 116.2853125 1.22484375 116.2853125 2.58203125 115.875 C8.27855005 113.83285175 11.69599393 110.98844067 15.89453125 106.6875 C16.92703908 105.82228458 17.96889191 104.96810564 19.01953125 104.125 C21.4395611 102.07323556 23.23266538 100.36495057 24.89453125 97.6875 C24.89453125 97.0275 24.89453125 96.3675 24.89453125 95.6875 C25.55453125 95.6875 26.21453125 95.6875 26.89453125 95.6875 C27.22453125 94.3675 27.55453125 93.0475 27.89453125 91.6875 C28.55453125 91.6875 29.21453125 91.6875 29.89453125 91.6875 C30.22453125 90.3675 30.55453125 89.0475 30.89453125 87.6875 C31.55453125 87.6875 32.21453125 87.6875 32.89453125 87.6875 C32.89453125 86.6975 32.89453125 85.7075 32.89453125 84.6875 C33.55453125 84.6875 34.21453125 84.6875 34.89453125 84.6875 C35.56861433 83.42058493 36.23353622 82.14879251 36.89453125 80.875 C37.26578125 80.16730469 37.63703125 79.45960938 38.01953125 78.73046875 C39.09138483 76.59829271 39.09138483 76.59829271 38.89453125 73.6875 C39.55453125 73.6875 40.21453125 73.6875 40.89453125 73.6875 C41.136875 72.98625 41.37921875 72.285 41.62890625 71.5625 C43.21861893 67.06239027 44.80290114 62.67076352 47.01953125 58.4375 C50.45870944 51.91516982 50.45870944 51.91516982 50.01953125 44.8125 C47.60320042 42.39616917 45.90582278 41.76820421 42.5078125 41.55078125 C31.40069756 42.13187097 15.70911617 45.20789304 5.89453125 50.6875 Z M187.89453125 76.6875 C186.92515625 77.3475 185.95578125 78.0075 184.95703125 78.6875 C177.08540598 85.35766668 171.92075693 97.63048837 170.89453125 107.6875 C175.25870856 104.73526241 177.63604658 101.29104549 180.41015625 96.9296875 C181.71831392 94.95368092 183.08136481 93.21215366 184.64453125 91.4375 C186.74904148 88.86532083 187.87989804 86.82363903 188.89453125 83.6875 C189.55453125 83.6875 190.21453125 83.6875 190.89453125 83.6875 C192.23348757 82.02534732 193.56583267 80.35786393 194.89453125 78.6875 C195.80203125 77.965625 196.70953125 77.24375 197.64453125 76.5 C198.38703125 75.901875 199.12953125 75.30375 199.89453125 74.6875 C199.89453125 74.0275 199.89453125 73.3675 199.89453125 72.6875 C194.53628757 72.17719108 192.11110743 73.43722253 187.89453125 76.6875 Z M200.89453125 90.6875 C200.89453125 91.3475 200.89453125 92.0075 200.89453125 92.6875 C199.57453125 93.0175 198.25453125 93.3475 196.89453125 93.6875 C196.56453125 95.3375 196.23453125 96.9875 195.89453125 98.6875 C194.90453125 99.0175 193.91453125 99.3475 192.89453125 99.6875 C191.215847 101.66736222 191.215847 101.66736222 189.70703125 104.0625 C188.91232422 105.24972656 188.91232422 105.24972656 188.1015625 106.4609375 C186.65624063 108.70495067 186.65624063 108.70495067 186.89453125 111.6875 C186.23453125 111.6875 185.57453125 111.6875 184.89453125 111.6875 C183.63788147 114.59350261 182.89453125 116.48354584 182.89453125 119.6875 C181.90453125 120.1825 181.90453125 120.1825 180.89453125 120.6875 C178.31482888 125.02139997 177.4103258 128.70148599 176.89453125 133.6875 C176.58515625 135.481875 176.58515625 135.481875 176.26953125 137.3125 C175.31637405 145.18373366 175.44681236 153.91923213 179.89453125 160.6875 C183.79991135 160.16160996 185.21712581 158.56257819 187.58203125 155.5 C190.24636253 151.93617226 191.77739068 149.25598232 191.89453125 144.6875 C192.55453125 144.6875 193.21453125 144.6875 193.89453125 144.6875 C198.44364503 133.71504258 198.44364503 133.71504258 202.10546875 122.42578125 C202.75439291 120.17382165 203.45168199 117.95604594 204.18359375 115.73046875 C204.41361084 115.0233374 204.64362793 114.31620605 204.88061523 113.58764648 C205.33723494 112.18790762 205.79998165 110.79014784 206.26977539 109.39477539 C207.56987325 105.36482112 208.13752115 101.91683778 207.89453125 97.6875 C208.55453125 97.6875 209.21453125 97.6875 209.89453125 97.6875 C209.89453125 93.7275 209.89453125 89.7675 209.89453125 85.6875 C205.57834959 85.6875 203.96663466 87.82020348 200.89453125 90.6875 Z M267.89453125 95.6875 C267.38837827 96.95589526 266.88984026 98.22733102 266.39453125 99.5 C266.11609375 100.20769531 265.83765625 100.91539062 265.55078125 101.64453125 C264.74161505 103.80591216 264.74161505 103.80591216 264.89453125 106.6875 C264.23453125 106.6875 263.57453125 106.6875 262.89453125 106.6875 C262.71019531 107.22117187 262.52585937 107.75484375 262.3359375 108.3046875 C259.45150876 115.71446444 254.88871754 123.36111434 247.4375 126.83203125 C240.90756234 128.42595304 233.92148328 127.80525963 227.93359375 124.65625 C226.26953125 123.5625 226.26953125 123.5625 223.89453125 121.6875 C221.85233419 123.37929328 220.97659819 124.32477666 220.3828125 126.94921875 C220.32480469 127.74972656 220.26679687 128.55023438 220.20703125 129.375 C220.14128906 130.18324219 220.07554687 130.99148437 220.0078125 131.82421875 C219.97042969 132.43910156 219.93304687 133.05398437 219.89453125 133.6875 C219.23453125 133.6875 218.57453125 133.6875 217.89453125 133.6875 C216.28388496 137.33829826 215.44559034 140.7382432 214.89453125 144.6875 C214.23453125 144.6875 213.57453125 144.6875 212.89453125 144.6875 C212.53101563 145.64849609 212.53101563 145.64849609 212.16015625 146.62890625 C210.54289827 150.80267588 208.92847423 154.82926774 206.64453125 158.6875 C204.72657424 161.39657447 204.72657424 161.39657447 204.89453125 163.6875 C203.90453125 164.1825 203.90453125 164.1825 202.89453125 164.6875 C200.58144927 166.72301214 199.90250814 167.66356934 198.89453125 170.6875 C197.24014512 171.38408363 195.57198807 172.04846883 193.89453125 172.6875 C193.46140625 173.22375 193.02828125 173.76 192.58203125 174.3125 C190.25072727 176.21208102 188.13514181 176.22133066 185.19921875 176.09765625 C176.7327205 174.59090656 167.31927775 168.34646302 162.2578125 161.4609375 C161.39325742 160.05882238 160.5594659 158.63687695 159.76953125 157.19140625 C159.48078125 156.69511719 159.19203125 156.19882813 158.89453125 155.6875 C158.56453125 155.6875 158.23453125 155.6875 157.89453125 155.6875 C157.72848389 156.51886475 157.56243652 157.35022949 157.39135742 158.20678711 C156.76407045 161.33321323 156.13163239 164.45854335 155.49584961 167.58325195 C155.22331928 168.9278957 154.95276052 170.27294078 154.68432617 171.6184082 C153.17401413 179.1812184 151.44255435 186.41071332 148.89453125 193.6875 C148.89453125 194.5125 148.89453125 195.3375 148.89453125 196.1875 C148.89453125 199.60401175 147.68578148 202.34282718 146.453125 205.50390625 C145.82347163 207.96527852 146.08116905 209.31205145 146.89453125 211.6875 C146.23453125 211.6875 145.57453125 211.6875 144.89453125 211.6875 C144.89453125 213.3375 144.89453125 214.9875 144.89453125 216.6875 C144.23453125 216.6875 143.57453125 216.6875 142.89453125 216.6875 C142.6521875 217.71488281 142.40984375 218.74226563 142.16015625 219.80078125 C140.19443968 227.98350972 137.90638762 235.81902524 134.89453125 243.6875 C133.86322016 246.67731051 132.88032348 249.68242368 131.89453125 252.6875 C131.33280433 254.3752575 130.77032085 256.0627634 130.20703125 257.75 C129.95566406 258.50410156 129.70429688 259.25820313 129.4453125 260.03515625 C129.26355469 260.58042969 129.08179688 261.12570312 128.89453125 261.6875 C131.27061074 262.52333327 132.43902752 262.8717383 134.81640625 261.91015625 C135.4196875 261.52730469 136.02296875 261.14445313 136.64453125 260.75 C137.71703125 260.069375 138.78953125 259.38875 139.89453125 258.6875 C139.89453125 258.0275 139.89453125 257.3675 139.89453125 256.6875 C142.86453125 255.6975 142.86453125 255.6975 145.89453125 254.6875 C145.89453125 254.0275 145.89453125 253.3675 145.89453125 252.6875 C147.54453125 252.3575 149.19453125 252.0275 150.89453125 251.6875 C150.89453125 251.0275 150.89453125 250.3675 150.89453125 249.6875 C151.55453125 249.605 152.21453125 249.5225 152.89453125 249.4375 C156.88492288 248.43990209 160.28002768 246.61583317 163.89453125 244.6875 C163.89453125 244.0275 163.89453125 243.3675 163.89453125 242.6875 C164.86519531 242.33365234 164.86519531 242.33365234 165.85546875 241.97265625 C169.88245091 240.26972935 173.67488259 238.20150393 177.51953125 236.125 C179.03139623 235.3090526 180.54437381 234.49516251 182.05859375 233.68359375 C182.7232666 233.32450928 183.38793945 232.9654248 184.07275391 232.59545898 C185.89453125 231.6875 185.89453125 231.6875 188.89453125 230.6875 C188.89453125 230.0275 188.89453125 229.3675 188.89453125 228.6875 C190.54453125 228.3575 192.19453125 228.0275 193.89453125 227.6875 C193.89453125 227.0275 193.89453125 226.3675 193.89453125 225.6875 C194.60996094 225.58050781 195.32539063 225.47351563 196.0625 225.36328125 C199.17005647 224.62175398 201.43770525 223.45804453 204.20703125 221.875 C215.71664663 215.41346154 215.71664663 215.41346154 220.89453125 213.6875 C220.89453125 213.0275 220.89453125 212.3675 220.89453125 211.6875 C222.54453125 211.3575 224.19453125 211.0275 225.89453125 210.6875 C225.89453125 210.0275 225.89453125 209.3675 225.89453125 208.6875 C226.40242187 208.59726562 226.9103125 208.50703125 227.43359375 208.4140625 C230.9189342 207.38505723 234.04740993 205.7133708 237.26953125 204.0625 C238.70572833 203.33593584 240.14192626 202.60937337 241.578125 201.8828125 C243.01692802 201.15104351 244.45573013 200.41927273 245.89453125 199.6875 C248.37160135 198.43330284 250.8511373 197.18411324 253.33203125 195.9375 C254.45996094 195.36902344 255.58789062 194.80054688 256.75 194.21484375 C260.18222131 192.54776483 263.65836467 191.06708988 267.22265625 189.70703125 C269.37796014 188.39269874 269.96043061 186.98939087 270.89453125 184.6875 C269.78078125 184.625625 268.66703125 184.56375 267.51953125 184.5 C259.76339553 183.52360703 252.25123956 179.30551116 246.89453125 173.6875 C245.00663227 170.27956471 243.7804549 167.17049254 244.08203125 163.25 C244.35015625 162.404375 244.61828125 161.55875 244.89453125 160.6875 C245.21196699 159.14684205 245.52401433 157.60506862 245.83203125 156.0625 C246.47655283 152.88863742 247.03263081 151.48035066 248.89453125 148.6875 C248.89453125 147.6975 248.89453125 146.7075 248.89453125 145.6875 C249.55453125 145.6875 250.21453125 145.6875 250.89453125 145.6875 C250.89453125 144.6975 250.89453125 143.7075 250.89453125 142.6875 C251.55453125 142.6875 252.21453125 142.6875 252.89453125 142.6875 C253.22453125 141.6975 253.55453125 140.7075 253.89453125 139.6875 C258.73362306 134.73587117 258.73362306 134.73587117 262.89453125 134.5625 C266.88141829 136.05758264 268.93730173 137.58945002 271.89453125 140.6875 C272.47194962 144.03541612 272.13711118 145.33039978 270.21484375 148.16015625 C269.49039063 149.01480469 268.7659375 149.86945313 268.01953125 150.75 C263.72269701 156.40010766 261.68003845 161.52344064 261.89453125 168.6875 C263.66025114 172.36608311 265.04730352 173.26388613 268.64453125 175.0625 C274.77141137 176.24074618 280.10144603 174.85990696 285.89453125 172.6875 C285.89453125 172.0275 285.89453125 171.3675 285.89453125 170.6875 C286.62542969 170.44515625 287.35632813 170.2028125 288.109375 169.953125 C294.80604369 166.91003853 300.34339373 160.04995472 303.89453125 153.6875 C306.46991121 145.13391124 306.67763632 132.87968937 302.76953125 124.8125 C296.11428821 114.68016781 285.38558806 106.87489589 276.00390625 99.39453125 C273.89453125 97.6875 273.89453125 97.6875 271.89453125 95.6875 C270.57453125 95.6875 269.25453125 95.6875 267.89453125 95.6875 Z M-3.10546875 133.6875 C-3.10546875 134.3475 -3.10546875 135.0075 -3.10546875 135.6875 C-3.82476562 135.82414063 -4.5440625 135.96078125 -5.28515625 136.1015625 C-7.97243285 136.65986096 -10.5909084 137.31179935 -13.23046875 138.0625 C-14.07867187 138.29710937 -14.926875 138.53171875 -15.80078125 138.7734375 C-19.04989887 140.06207059 -20.59483227 141.67281135 -22.16577148 144.79443359 C-24.52507513 150.88689055 -26.45838161 157.00868541 -28.16796875 163.3125 C-29.70344943 168.93309241 -31.30556642 174.43565385 -33.41577148 179.86914062 C-34.44473863 182.58197152 -35.27297065 185.34653758 -36.10546875 188.125 C-38.27440481 195.26441453 -40.58976509 202.31044134 -43.16796875 209.3125 C-44.66839639 213.39889195 -45.91978437 217.49808185 -47.10546875 221.6875 C-47.63714427 223.10794654 -48.17914194 224.52456477 -48.73046875 225.9375 C-50.27759607 229.49124877 -50.27759607 229.49124877 -50.10546875 232.6875 C-46.64046875 232.1925 -46.64046875 232.1925 -43.10546875 231.6875 C-42.77546875 230.6975 -42.44546875 229.7075 -42.10546875 228.6875 C-40.41796875 227.75 -40.41796875 227.75 -38.10546875 226.6875 C-33.70585627 224.10511876 -30.66904906 221.2909368 -27.5 217.37109375 C-26.10546875 215.6875 -26.10546875 215.6875 -24.4296875 214.09765625 C-22.87728694 212.76691823 -22.87728694 212.76691823 -23.10546875 210.6875 C-22.44546875 210.6875 -21.78546875 210.6875 -21.10546875 210.6875 C-16.75005853 205.28474774 -10.10546875 196.78180062 -10.10546875 189.6875 C-9.44546875 189.6875 -8.78546875 189.6875 -8.10546875 189.6875 C-7.92371094 188.18509766 -7.92371094 188.18509766 -7.73828125 186.65234375 C-7.56929724 185.3098597 -7.40001017 183.96741377 -7.23046875 182.625 C-7.15183594 181.96822266 -7.07320313 181.31144531 -6.9921875 180.63476562 C-6.41951874 176.16354419 -5.40318639 172.01652755 -4.10546875 167.6875 C-3.33606448 164.42137887 -2.61045895 161.14759152 -1.88671875 157.87109375 C-1.11682462 154.73377517 -0.15745362 151.74062903 0.89453125 148.6875 C1.61138753 146.46105952 2.31965251 144.23183554 3.01953125 142 C3.54933594 140.32357422 3.54933594 140.32357422 4.08984375 138.61328125 C5.02712445 135.71113845 5.02712445 135.71113845 4.89453125 132.6875 C1.78195556 132.6875 -0.2131256 132.86111624 -3.10546875 133.6875 Z M125.89453125 195.6875 C125.53359375 196.1928125 125.17265625 196.698125 124.80078125 197.21875 C121.18896572 202.27529174 121.18896572 202.27529174 117.8828125 203.328125 C111.21753915 203.66318362 105.67259224 200.71153192 99.89453125 197.6875 C97.07074452 200.98191785 95.89458531 204.17985858 94.64453125 208.3125 C94.11085938 210.03339844 94.11085938 210.03339844 93.56640625 211.7890625 C92.58860866 214.60702134 92.58860866 214.60702134 93.89453125 216.6875 C93.23453125 216.6875 92.57453125 216.6875 91.89453125 216.6875 C91.29720306 219.45014289 90.89453125 221.84782769 90.89453125 224.6875 C90.23453125 224.6875 89.57453125 224.6875 88.89453125 224.6875 C88.64703125 225.63625 88.39953125 226.585 88.14453125 227.5625 C87.04936385 231.38798058 85.60031991 235.01179126 84.09375 238.69140625 C82.65223368 242.29284931 81.30470754 245.92514483 79.95703125 249.5625 C78.16109814 254.40157339 76.295078 259.18837192 74.26953125 263.9375 C72.65370582 267.72984738 71.29439586 271.49863857 70.08203125 275.4375 C68.18442892 281.36554695 65.5024993 286.75761782 62.6237793 292.25683594 C60.99378782 295.38523611 59.65379119 298.24514458 58.89453125 301.6875 C60.63977574 302.47164014 60.63977574 302.47164014 62.89453125 302.6875 C65.45077137 301.53574922 65.45077137 301.53574922 67.95703125 299.8125 C70.66712174 298.06011066 72.82244951 296.71152725 75.89453125 295.6875 C75.89453125 295.0275 75.89453125 294.3675 75.89453125 293.6875 C77.16296875 293.2853125 77.16296875 293.2853125 78.45703125 292.875 C82.03307192 291.6396405 85.43314033 290.210512 88.89453125 288.6875 C88.89453125 288.0275 88.89453125 287.3675 88.89453125 286.6875 C91.36953125 286.1925 91.36953125 286.1925 93.89453125 285.6875 C93.89453125 285.0275 93.89453125 284.3675 93.89453125 283.6875 C94.49265625 283.605 95.09078125 283.5225 95.70703125 283.4375 C98.60696576 282.44323674 99.23323989 281.25417379 100.89453125 278.6875 C101.78636777 276.60745446 102.61549605 274.49986846 103.39453125 272.375 C104.74314107 268.74067989 106.09077403 265.14859394 107.70703125 261.625 C109.1443907 258.59750128 109.1443907 258.59750128 108.89453125 254.6875 C109.55453125 254.6875 110.21453125 254.6875 110.89453125 254.6875 C111.07628906 254.07003906 111.25804687 253.45257813 111.4453125 252.81640625 C112.73659739 248.46576946 114.06921907 244.15409731 115.58203125 239.875 C116.66165097 236.70361707 117.22225736 234.07400309 116.89453125 230.6875 C117.55453125 230.6875 118.21453125 230.6875 118.89453125 230.6875 C119.16007812 229.68589844 119.425625 228.68429687 119.69921875 227.65234375 C120.05595556 226.30988679 120.41272832 224.96743939 120.76953125 223.625 C120.94355469 222.96822266 121.11757813 222.31144531 121.296875 221.63476562 C124.53206759 209.47283794 124.53206759 209.47283794 126.01953125 206.25 C127.25390509 202.63504803 127.02369299 199.49777129 126.89453125 195.6875 C126.56453125 195.6875 126.23453125 195.6875 125.89453125 195.6875 Z M-10.10546875 217.6875 C-10.10546875 218.3475 -10.10546875 219.0075 -10.10546875 219.6875 C-11.09546875 220.0175 -12.08546875 220.3475 -13.10546875 220.6875 C-13.10546875 221.6775 -13.10546875 222.6675 -13.10546875 223.6875 C-15.41796875 226.1875 -15.41796875 226.1875 -18.10546875 228.6875 C-19.8569604 230.26995275 -19.8569604 230.26995275 -21.10546875 231.6875 C-21.10546875 232.3475 -21.10546875 233.0075 -21.10546875 233.6875 C-22.59046875 234.1825 -22.59046875 234.1825 -24.10546875 234.6875 C-25.12743867 235.66503644 -26.125265 236.6680881 -27.10546875 237.6875 C-31.07370394 240.83717546 -35.4122383 243.35357539 -39.7421875 245.96875 C-42.37769711 247.53545475 -42.37769711 247.53545475 -43.10546875 250.6875 C-45.16796875 251.625 -45.16796875 251.625 -48.10546875 252.6875 C-49.47127433 253.243036 -50.82506586 253.82868395 -52.16796875 254.4375 C-52.81894531 254.72109375 -53.46992188 255.0046875 -54.140625 255.296875 C-59.96250763 259.41733269 -61.01683124 265.49637035 -62.16796875 272.0625 C-63.03678629 276.84289343 -63.9055318 281.43084822 -65.66796875 285.97265625 C-66.84852655 289.02349991 -67.57939302 291.54663962 -68.04296875 294.75 C-68.76189358 299.06944179 -69.74715639 303.21789224 -70.91796875 307.4375 C-72.74652176 314.12615443 -74.31269451 320.85095494 -75.79296875 327.625 C-76.00735596 328.59598633 -76.22174316 329.56697266 -76.44262695 330.56738281 C-77.34917436 334.76635708 -78.18599559 338.92326286 -78.6875 343.19140625 C-79.10546875 346.6875 -79.10546875 346.6875 -80.10546875 349.6875 C-80.44821281 351.35225686 -80.77911177 353.01945323 -81.10546875 354.6875 C-81.24984375 355.29207031 -81.39421875 355.89664063 -81.54296875 356.51953125 C-82.63119665 361.10199094 -83.38376995 365.63923947 -83.98046875 370.3125 C-84.68451096 375.52241239 -85.74677533 380.45336505 -87.16796875 385.5 C-88.48765088 390.20897644 -89.51340453 394.64000296 -89.87524414 399.51171875 C-90.10201008 401.65481321 -90.50570265 403.65073694 -91.00390625 405.74609375 C-92.44411723 412.04685533 -93.50916017 418.4112857 -94.60546875 424.77929688 C-95.45682142 429.59143484 -96.49288074 434.06515803 -98.10546875 438.6875 C-98.95783919 441.92317232 -99.71821121 445.17957911 -100.48046875 448.4375 C-100.69815918 449.35764893 -100.91584961 450.27779785 -101.14013672 451.22583008 C-102.72460621 457.95895738 -104.24508161 464.70554696 -105.67333984 471.47363281 C-107.85267157 481.56967122 -111.29312126 491.20374565 -114.86669922 500.87475586 C-115.60755677 502.8806534 -116.34316321 504.88842011 -117.078125 506.89648438 C-120.82530957 517.08871647 -120.82530957 517.08871647 -122.76757812 521.3684082 C-124.35470841 524.70939155 -124.35470841 524.70939155 -124.10546875 528.6875 C-122.78546875 528.3575 -121.46546875 528.0275 -120.10546875 527.6875 C-120.10546875 527.0275 -120.10546875 526.3675 -120.10546875 525.6875 C-119.44546875 525.6875 -118.78546875 525.6875 -118.10546875 525.6875 C-116.60669372 524.03266392 -115.18058402 522.31159488 -113.79296875 520.5625 C-112.98730469 519.55703125 -112.18164062 518.5515625 -111.3515625 517.515625 C-110.23974609 516.11570312 -110.23974609 516.11570312 -109.10546875 514.6875 C-105.96313522 510.79775722 -102.64246294 507.22449419 -99.10546875 503.6875 C-93.45296857 497.71819303 -87.93199864 491.71082353 -82.96875 485.1484375 C-80.61868154 482.0445735 -78.20483929 478.99342131 -75.79296875 475.9375 C-67.80115988 465.77547827 -59.94764239 455.51260539 -52.16796875 445.1875 C-51.51666992 444.32624512 -50.86537109 443.46499023 -50.19433594 442.57763672 C-49.57848633 441.7579541 -48.96263672 440.93827148 -48.328125 440.09375 C-47.77906494 439.36478516 -47.23000488 438.63582031 -46.66430664 437.88476562 C-43.37360047 433.65638062 -43.37360047 433.65638062 -42.10546875 428.6875 C-41.44546875 428.6875 -40.78546875 428.6875 -40.10546875 428.6875 C-38.69636874 426.71475999 -37.39788395 424.73473834 -36.10546875 422.6875 C-35.25046724 421.41891636 -34.39093011 420.15338017 -33.52734375 418.890625 C-32.636669 417.57295029 -31.74604458 416.25524156 -30.85546875 414.9375 C-30.3965625 414.26589844 -29.93765625 413.59429687 -29.46484375 412.90234375 C-26.97338766 409.58898762 -26.97338766 409.58898762 -26.10546875 405.6875 C-25.44546875 405.6875 -24.78546875 405.6875 -24.10546875 405.6875 C-23.52796875 404.615 -22.95046875 403.5425 -22.35546875 402.4375 C-21.00469821 400.03880071 -19.95059618 398.54147729 -17.91796875 396.625 C-15.55823137 394.10252211 -15.41247335 392.06455057 -15.10546875 388.6875 C-14.44546875 388.6875 -13.78546875 388.6875 -13.10546875 388.6875 C-12.55375 387.70394531 -12.00203125 386.72039062 -11.43359375 385.70703125 C-8.61290073 380.76833108 -5.53688147 375.993942 -2.46484375 371.20898438 C-2.03171875 370.52513672 -1.59859375 369.84128906 -1.15234375 369.13671875 C-0.56211426 368.21379028 -0.56211426 368.21379028 0.04003906 367.2722168 C1.05273431 365.69416983 1.05273431 365.69416983 0.89453125 363.6875 C1.55453125 363.6875 2.21453125 363.6875 2.89453125 363.6875 C3.30703125 362.82125 3.71953125 361.955 4.14453125 361.0625 C5.89453125 357.6875 5.89453125 357.6875 8.14453125 354.5 C8.72203125 353.571875 9.29953125 352.64375 9.89453125 351.6875 C9.56453125 350.6975 9.23453125 349.7075 8.89453125 348.6875 C8.19328125 348.92726563 7.49203125 349.16703125 6.76953125 349.4140625 C0.30901761 351.43297301 -3.77348219 352.30763237 -10.10546875 349.6875 C-13.16796875 347.375 -13.16796875 347.375 -15.10546875 344.6875 C-15.1796875 342.26953125 -15.1796875 342.26953125 -14.10546875 339.6875 C-11.66258962 338.08322117 -9.4879668 336.88447337 -6.85546875 335.6875 C-5.77217285 335.17050537 -5.77217285 335.17050537 -4.66699219 334.64306641 C-0.29832894 332.59146827 4.12610651 330.7623928 8.64453125 329.0625 C9.68480469 328.66546875 10.72507812 328.2684375 11.796875 327.859375 C13.8826176 327.07031727 15.97956329 326.31032852 18.0859375 325.578125 C27.89864719 321.59900368 30.95588827 314.95670856 34.89453125 305.6875 C35.37535156 304.57761719 35.85617187 303.46773438 36.3515625 302.32421875 C37.18606161 300.34007736 38.00257011 298.34822756 38.796875 296.34765625 C39.81624367 293.87722898 40.95906952 291.54862619 42.20703125 289.1875 C44.18406404 285.73458259 44.18406404 285.73458259 43.89453125 281.6875 C44.55453125 281.6875 45.21453125 281.6875 45.89453125 281.6875 C46.16007813 280.93984375 46.425625 280.1921875 46.69921875 279.421875 C47.05242187 278.43703125 47.405625 277.4521875 47.76953125 276.4375 C48.11757813 275.46296875 48.465625 274.4884375 48.82421875 273.484375 C49.89453125 270.6875 49.89453125 270.6875 51.02734375 268.578125 C52.17247349 266.4282056 52.17247349 266.4282056 51.89453125 262.6875 C52.55453125 262.6875 53.21453125 262.6875 53.89453125 262.6875 C54.22453125 260.0475 54.55453125 257.4075 54.89453125 254.6875 C55.55453125 254.6875 56.21453125 254.6875 56.89453125 254.6875 C61.0549718 244.9175349 61.0549718 244.9175349 62.89453125 234.6875 C63.55453125 234.6875 64.21453125 234.6875 64.89453125 234.6875 C66.13374427 231.71338876 67.19511529 228.83487182 67.89453125 225.6875 C64.11813805 225.3893576 64.11813805 225.3893576 61.89453125 226.6875 C56.62932507 227.09251586 53.36987347 226.5089114 48.89453125 223.6875 C46.01953125 221 46.01953125 221 43.89453125 218.6875 C40.57919405 220.04692697 39.26742422 221.18996735 37.76953125 224.4375 C37.43953125 225.14519531 37.10953125 225.85289062 36.76953125 226.58203125 C36.01572345 228.39588126 35.38048972 230.25818244 34.76953125 232.125 C33.89453125 234.6875 33.89453125 234.6875 31.89453125 235.6875 C30.78078125 236.863125 30.78078125 236.863125 29.64453125 238.0625 C25.66705195 241.85918479 22.80377191 243.55582823 17.26953125 243.9375 C9.83904239 242.66329285 2.839326 236.12218154 -2.10546875 230.6875 C-4.27858638 227.42782355 -5.77935973 224.17978547 -7.2109375 220.54296875 C-7.96024909 218.50532998 -7.96024909 218.50532998 -10.10546875 217.6875 Z M-96.10546875 280.6875 C-96.78609375 280.97625 -97.46671875 281.265 -98.16796875 281.5625 C-101.33938857 283.40396957 -102.47170715 285.41997681 -104.10546875 288.6875 C-105.00805929 294.97261219 -103.78129637 301.04398259 -102.5546875 307.203125 C-101.79933605 311.38054695 -101.76601558 314.6691405 -103.10546875 318.6875 C-107.85814439 321.34340697 -112.55055128 321.16283348 -117.79296875 320.1875 C-122.35790723 317.22645882 -123.88379311 311.84459846 -125.16796875 306.75 C-125.47734375 305.739375 -125.78671875 304.72875 -126.10546875 303.6875 C-127.09546875 303.3575 -128.08546875 303.0275 -129.10546875 302.6875 C-130.64713517 304.06235532 -130.64713517 304.06235532 -132.10546875 305.6875 C-132.10546875 306.3475 -132.10546875 307.0075 -132.10546875 307.6875 C-133.09546875 307.6875 -134.08546875 307.6875 -135.10546875 307.6875 C-135.10546875 308.3475 -135.10546875 309.0075 -135.10546875 309.6875 C-136.09546875 309.6875 -137.08546875 309.6875 -138.10546875 309.6875 C-138.10546875 310.3475 -138.10546875 311.0075 -138.10546875 311.6875 C-138.84796875 311.914375 -139.59046875 312.14125 -140.35546875 312.375 C-143.67210985 313.95794234 -144.83765957 315.81938839 -147.10546875 318.6875 C-148.33128591 319.61614937 -149.58301059 320.51136374 -150.85546875 321.375 C-151.92796875 322.138125 -153.00046875 322.90125 -154.10546875 323.6875 C-154.10546875 324.3475 -154.10546875 325.0075 -154.10546875 325.6875 C-154.76546875 325.6875 -155.42546875 325.6875 -156.10546875 325.6875 C-157.81655564 327.30852968 -159.47800181 328.98253463 -161.10546875 330.6875 C-161.86859375 331.409375 -162.63171875 332.13125 -163.41796875 332.875 C-165.33260826 334.51872273 -165.33260826 334.51872273 -165.10546875 336.6875 C-165.70359375 336.955625 -166.30171875 337.22375 -166.91796875 337.5 C-169.11737516 338.69396348 -170.42296362 339.85869007 -172.10546875 341.6875 C-172.66234375 342.203125 -173.21921875 342.71875 -173.79296875 343.25 C-175.3302252 344.60923659 -175.3302252 344.60923659 -175.10546875 346.6875 C-175.74484375 346.935 -176.38421875 347.1825 -177.04296875 347.4375 C-179.30181989 348.47563195 -179.30181989 348.47563195 -179.60546875 350.6875 C-180.10546875 352.6875 -180.10546875 352.6875 -182.16796875 353.9375 C-182.80734375 354.185 -183.44671875 354.4325 -184.10546875 354.6875 C-184.10546875 355.3475 -184.10546875 356.0075 -184.10546875 356.6875 C-184.76546875 356.6875 -185.42546875 356.6875 -186.10546875 356.6875 C-188.06528163 358.94157908 -189.90947639 361.2007561 -191.73046875 363.5625 C-192.24609375 364.21347656 -192.76171875 364.86445313 -193.29296875 365.53515625 C-196.13011778 368.75256674 -196.13011778 368.75256674 -197.10546875 372.6875 C-197.76546875 372.6875 -198.42546875 372.6875 -199.10546875 372.6875 C-199.10546875 373.6775 -199.10546875 374.6675 -199.10546875 375.6875 C-199.76546875 375.6875 -200.42546875 375.6875 -201.10546875 375.6875 C-202.53164685 377.52977235 -203.86982422 379.44037544 -205.16796875 381.375 C-205.97630575 382.57048614 -206.78490712 383.76579357 -207.59375 384.9609375 C-208.21564209 385.88664551 -208.21564209 385.88664551 -208.85009766 386.83105469 C-210.44314467 389.18685583 -212.07092095 391.51727526 -213.70117188 393.84741211 C-220.75239081 402.59631825 -220.75239081 402.59631825 -224.10546875 412.6875 C-224.76546875 412.6875 -225.42546875 412.6875 -226.10546875 412.6875 C-238.97632228 436.19897566 -251.6039617 462.03857827 -256.10546875 488.6875 C-256.23791992 489.46351563 -256.37037109 490.23953125 -256.50683594 491.0390625 C-261.23870277 519.53659756 -261.08789133 549.13100184 -246.10546875 574.6875 C-242.04409529 580.19000598 -237.8401741 584.93727772 -231.27734375 587.36328125 C-214.6614577 589.84371028 -200.96309543 585.40012046 -187.35546875 575.8125 C-182.49609345 572.15046357 -178.28788307 568.08953882 -174.10546875 563.6875 C-172.74421875 562.45 -172.74421875 562.45 -171.35546875 561.1875 C-169.4047897 559.02007883 -168.46833803 557.58782507 -167.26171875 555.0234375 C-165.54954401 551.50830295 -163.64615071 548.18720138 -161.60449219 544.85522461 C-153.50930458 531.61589022 -147.6211056 517.59940457 -142.33203125 503.04296875 C-141.5870715 501.00500562 -140.80067476 498.98074615 -139.94140625 496.98828125 C-138.87781088 494.46889812 -138.87781088 494.46889812 -139.10546875 490.6875 C-138.44546875 490.6875 -137.78546875 490.6875 -137.10546875 490.6875 C-136.77933594 489.40875 -136.45320313 488.13 -136.1171875 486.8125 C-135.67600928 485.10410776 -135.23459018 483.39577772 -134.79296875 481.6875 C-134.57962891 480.84832031 -134.36628906 480.00914062 -134.14648438 479.14453125 C-133.10786942 475.14508858 -131.99907518 471.26174561 -130.49609375 467.41015625 C-129.29566618 464.1966521 -128.6052651 461.50053473 -128.16796875 458.125 C-127.06192525 450.8158959 -125.06595123 443.80555947 -123.10546875 436.6875 C-120.94850071 428.66555093 -120.94850071 428.66555093 -119.48046875 420.5 C-119.10546875 417.6875 -119.10546875 417.6875 -118.10546875 416.6875 C-117.77884237 414.52582725 -117.4947847 412.35767303 -117.23046875 410.1875 C-116.55560584 405.19149991 -115.59324081 400.82155884 -113.83203125 396.125 C-112.51214645 391.69699939 -112.09248595 387.10722014 -111.53515625 382.53125 C-111.10546875 379.6875 -111.10546875 379.6875 -110.10546875 378.6875 C-109.73308157 376.36008011 -109.40710009 374.02514285 -109.10546875 371.6875 C-108.21657986 364.79861111 -108.21657986 364.79861111 -107.10546875 363.6875 C-106.77318794 362.13885416 -106.4940057 360.57873711 -106.23828125 359.015625 C-105.99525269 357.5618042 -105.99525269 357.5618042 -105.74731445 356.07861328 C-105.57675537 355.0420459 -105.40619629 354.00547852 -105.23046875 352.9375 C-101.13512386 328.71715511 -101.13512386 328.71715511 -99.10546875 326.6875 C-98.5906217 324.46630275 -98.1187226 322.23508516 -97.66796875 320 C-96.95175257 316.44891767 -96.22277118 313.03719402 -95.0703125 309.6015625 C-94.08897815 306.63769437 -93.55955608 303.83536121 -93.10546875 300.75 C-92.23905326 295.2807522 -91.21718552 290.21974375 -88.98046875 285.125 C-87.93225492 282.20497576 -87.96225977 279.76649299 -88.10546875 276.6875 C-92.05267563 276.6875 -93.12101978 278.21259109 -96.10546875 280.6875 Z " fill="#FEFEFE" transform="translate(307.10546875,87.3125)"/>
<path d="M0 0 C3.02546261 3.0958222 3.97892633 4.49855798 4.6875 8.75 C4.59000466 14.68835225 3.92351333 20.21880914 1.6875 25.75 C1.30464844 26.78447266 1.30464844 26.78447266 0.9140625 27.83984375 C-1.00628342 32.90331997 -3.26795515 37.68699128 -5.75 42.5 C-9.70622322 50.20677769 -12.53485073 58.20885902 -15.1796875 66.453125 C-16.50387671 70.57585842 -17.85652193 74.12450857 -20.3125 77.75 C-27.82545557 77.40196782 -32.79711666 75.38530886 -39.25 71.625 C-40.56931519 70.87621582 -40.56931519 70.87621582 -41.9152832 70.11230469 C-47.9557824 66.64457957 -53.79365961 63.00943896 -59.3125 58.75 C-60.12074219 58.13125 -60.92898438 57.5125 -61.76171875 56.875 C-63.28176946 55.70008157 -64.79691764 54.51876245 -66.3046875 53.328125 C-67.69532946 52.23509124 -69.12055897 51.18519754 -70.5703125 50.171875 C-71.14523437 49.70265625 -71.72015625 49.2334375 -72.3125 48.75 C-72.3125 48.09 -72.3125 47.43 -72.3125 46.75 C-72.9725 46.75 -73.6325 46.75 -74.3125 46.75 C-75.78515625 44.703125 -75.78515625 44.703125 -77.375 42 C-77.90222656 41.11828125 -78.42945313 40.2365625 -78.97265625 39.328125 C-81.31748948 34.816201 -81.83855748 30.83522229 -81.3125 25.75 C-79.87746642 23.30294648 -78.37840821 21.76671992 -76.3125 19.75 C-75.6525 19.75 -74.9925 19.75 -74.3125 19.75 C-74.3125 19.09 -74.3125 18.43 -74.3125 17.75 C-66.4884212 15.14197373 -58.36474814 16.44577315 -50.859375 19.4609375 C-47.55630977 21.13273432 -44.77571313 23.17555486 -41.96875 25.578125 C-40.24248728 27.03879496 -40.24248728 27.03879496 -37.3125 26.75 C-36.8175 25.265 -36.8175 25.265 -36.3125 23.75 C-35.6525 23.75 -34.9925 23.75 -34.3125 23.75 C-34.2196875 22.5125 -34.2196875 22.5125 -34.125 21.25 C-33.10108544 16.83929114 -31.17672188 13.26558698 -28.3125 9.75 C-27.6525 9.75 -26.9925 9.75 -26.3125 9.75 C-25.9825 8.43 -25.6525 7.11 -25.3125 5.75 C-24.6525 5.75 -23.9925 5.75 -23.3125 5.75 C-23.10625 5.193125 -22.9 4.63625 -22.6875 4.0625 C-20.36063512 0.14913634 -17.12612195 -2.5524531 -12.875 -4.1875 C-7.95328958 -4.30754172 -3.90274007 -2.95085225 0 0 Z M-16.3125 16.75 C-21.44111356 24.07274482 -25.95014741 31.64451918 -28.8125 40.125 C-30.3125 43.75 -30.3125 43.75 -32.1875 45.3125 C-35.91672353 46.08028132 -38.45837566 45.17706217 -41.8125 43.5 C-45.43495327 40.96428271 -48.29264373 37.83359729 -51.3125 34.625 C-54.9506454 31.21423869 -57.26018537 29.75 -62.3125 29.75 C-63.26270416 31.989835 -63.26270416 31.989835 -63.3125 34.75 C-61.2739968 37.29242578 -61.2739968 37.29242578 -58.3125 39.75 C-57.3325811 40.81180627 -56.35348009 41.87436769 -55.375 42.9375 C-51.94187466 46.37062534 -48.1726447 49.22118589 -44.25 52.0625 C-43.66033447 52.49522217 -43.07066895 52.92794434 -42.46313477 53.3737793 C-38.8739623 55.9184279 -35.60720668 57.56683119 -31.3125 58.75 C-29.36162561 55.8701378 -28.03324546 53.10904505 -27 49.8125 C-24.70252644 42.5534612 -21.69867055 35.24671083 -18.12890625 28.51953125 C-17.10303447 26.62078835 -17.10303447 26.62078835 -17.3125 23.75 C-16.6525 23.75 -15.9925 23.75 -15.3125 23.75 C-15.3125 21.44 -15.3125 19.13 -15.3125 16.75 C-15.6425 16.75 -15.9725 16.75 -16.3125 16.75 Z " fill="#FEFEFE" transform="translate(438.3125,469.25)"/>
<path d="M0 0 C2.01899871 2.01899871 1.18506846 5.98777159 1.1875 8.75 C1.19974609 9.46671875 1.21199219 10.1834375 1.22460938 10.921875 C1.2360447 15.06908708 0.8557613 18.27380735 -1 22 C-1.66 22 -2.32 22 -3 22 C-3.37125 22.8353125 -3.37125 22.8353125 -3.75 23.6875 C-8.06092493 31.66271112 -14.90169184 34.7884053 -23.17578125 37.7890625 C-25.08653411 38.31916785 -27.04662782 38.65893502 -29 39 C-30.10408203 39.19916016 -30.10408203 39.19916016 -31.23046875 39.40234375 C-37.59285444 40.28025433 -43.76187437 39.84208194 -50.125 39.25 C-50.95999023 39.17620117 -51.79498047 39.10240234 -52.65527344 39.02636719 C-59.98813828 38.2546388 -66.81450986 36.35615204 -73.375 32.9375 C-74.00148438 32.61652344 -74.62796875 32.29554687 -75.2734375 31.96484375 C-76.89696353 31.0575792 -78.45252833 30.03164778 -80 29 C-80.1875 26.375 -80.1875 26.375 -80 24 C-75.12159849 22.80039307 -72.4786811 23.23234608 -67.9375 25.3125 C-66.43509766 25.98732422 -66.43509766 25.98732422 -64.90234375 26.67578125 C-63.94457031 27.11277344 -62.98679687 27.54976562 -62 28 C-55.22066247 31.07953856 -48.25465244 31.18139729 -40.9375 31.1875 C-40.16083984 31.19974609 -39.38417969 31.21199219 -38.58398438 31.22460938 C-32.2966934 31.24058048 -27.39684121 29.86900047 -21.8125 26.9375 C-19.51507138 25.73667439 -17.47820577 24.82606859 -15 24 C-13.83046584 21.57616923 -13.83046584 21.57616923 -13 19 C-12.67 18.34 -12.34 17.68 -12 17 C-11.34 17 -10.68 17 -10 17 C-10.01160156 16.02417969 -10.02320313 15.04835938 -10.03515625 14.04296875 C-10.04417969 12.77066406 -10.05320312 11.49835937 -10.0625 10.1875 C-10.07410156 8.92292969 -10.08570313 7.65835938 -10.09765625 6.35546875 C-10 3 -10 3 -9 0 C-5.90842747 -1.54578627 -3.31526981 -0.60277633 0 0 Z " fill="#FFFFFF" transform="translate(503,48)"/>
<path d="M0 0 C0 0.66 0 1.32 0 2 C2.475 2.495 2.475 2.495 5 3 C4.814375 3.515625 4.62875 4.03125 4.4375 4.5625 C3.84871532 7.84287179 4.51432735 10.72170962 5 14 C4.67 14.66 4.34 15.32 4 16 C4.66 16 5.32 16 6 16 C6 16.66 6 17.32 6 18 C7.65 18.33 9.3 18.66 11 19 C11 20.65 11 22.3 11 24 C6.69725154 26.66790464 3.65487138 25.75677482 -1.109375 24.76953125 C-6.48495935 23.33846352 -13.1470941 21.18794119 -17 17 C-17.25 14.3125 -17.25 14.3125 -17 12 C-14.8125 11.3125 -14.8125 11.3125 -12 11 C-10.31243867 11.96432076 -8.64333504 12.96210419 -7 14 C-6.01 13.67 -5.02 13.34 -4 13 C-4.50603992 10.83125748 -4.99983813 9.00032373 -6 7 C-6.039992 5.00039988 -6.04346799 2.99952758 -6 1 C-3.92446352 0.4465236 -2.15634036 0 0 0 Z " fill="#FFFEFD" transform="translate(515,112)"/>
<path d="M0 0 C5.33310969 -0.50791521 7.86120581 0.65374087 12 4 C14.69450416 6.77418036 16.75830508 9.27491525 18 13 C16 15 16 15 12.125 15.3125 C9.26033786 15.2447898 8.07362374 15.04049306 5.5 13.625 C4 12 4 12 4 10 C3.34 10 2.68 10 2 10 C0.61061923 8.03852126 -0.7260411 6.03833424 -2 4 C-1.34 2.68 -0.68 1.36 0 0 Z " fill="#FFFFFF" transform="translate(418,41)"/>
<path d="M0 0 C6.13171156 -0.42287666 9.06938834 -0.03413682 14 4 C15.2065625 4.9590625 15.2065625 4.9590625 16.4375 5.9375 C18 8 18 8 17.75 10.75 C17.5025 11.4925 17.255 12.235 17 13 C12.06179735 13.61727533 9.70750017 13.15286119 5.6875 10.125 C3.67782785 8.49041401 1.83273756 6.83273756 0 5 C-0.125 2.375 -0.125 2.375 0 0 Z " fill="#FFFFFF" transform="translate(458,22)"/>
<path d="M0 0 C6.39534884 0.69767442 6.39534884 0.69767442 9 2 C11.25210084 7.06722689 11.25210084 7.06722689 10.375 10.3125 C9 12 9 12 7.25 13 C3.4507446 13 1.72523677 11.53942517 -1 9 C-1.60070605 6.10313719 -1.34455969 4.0025916 -1 1 C-0.67 0.67 -0.34 0.34 0 0 Z " fill="#FFFFFF" transform="translate(413,559)"/>
<path d="M0 0 C1.65 0 3.3 0 5 0 C5 6.27 5 12.54 5 19 C3.68 18.67 2.36 18.34 1 18 C-0.2039337 14.24600202 -0.09877617 10.66782588 -0.0625 6.75 C-0.05347656 5.48671875 -0.04445313 4.2234375 -0.03515625 2.921875 C-0.02355469 1.95765625 -0.01195312 0.9934375 0 0 Z " fill="#B7A69E" transform="translate(810,0)"/>
<path d="M0 0 C0.99 0 1.98 0 3 0 C3 4.62 3 9.24 3 14 C-0.16470185 9.25294723 -0.10927475 5.68228705 0 0 Z " fill="#7E5E53" transform="translate(812,0)"/>
<path d="" fill="#FFFFFF" transform="translate(0,0)"/>
<path d="" fill="#FFFFFF" transform="translate(0,0)"/>
<path d="" fill="#FFFFFF" transform="translate(0,0)"/>
<path d="" fill="#FFFFFF" transform="translate(0,0)"/>
<path d="" fill="#FFFFFF" transform="translate(0,0)"/>
<path d="" fill="#FFFFFF" transform="translate(0,0)"/>
<path d="" fill="#FFFFFF" transform="translate(0,0)"/>
<path d="" fill="#FFFFFF" transform="translate(0,0)"/>
<path d="" fill="#FFFFFF" transform="translate(0,0)"/>
</svg>
